<svg xmlns="http://www.w3.org/2000/svg" width="180" height="62" viewBox="0 0 180 62"><g fill="none" fill-rule="evenodd"><path d="M0 0h62v62H0z"/><path fill="#211E5E" d="M57.166 30.585c0 2.42-.98 4.562-2.564 6.152-1.59 1.59-3.777 2.52-6.202 2.52H22.525V21.855H48.4c4.844 0 8.766 3.886 8.766 8.73"/><path fill="#211E5E" d="M22.12 47.674c0 2.426.98 4.634 2.564 6.218 1.59 1.59 3.919 2.578 6.338 2.578 4.844 0 8.907-3.92 8.907-8.763v-8.83h-9.043c-4.844 0-8.767 3.953-8.767 8.797"/><path fill="#FF0D7B" d="M39.447 27.655c0 6.407-5.119 11.58-11.526 11.58h-14.69c-4.804 0-8.7-3.951-8.7-8.762 0-4.804 3.896-8.755 8.7-8.755h8.7v-8.777c0-4.804 3.95-8.7 8.758-8.7 4.807 0 8.758 3.896 8.758 8.7v14.714z"/><path fill="#211E5E" d="M93.115 30.251c0 1.892-.264 3.564-.792 5.016s-1.287 2.667-2.277 3.646c-.99.98-2.194 1.722-3.614 2.228-1.419.506-3.019.759-4.801.759h-5.775c-1.21 0-1.815-.583-1.815-1.749V20.648c0-.484.16-.88.478-1.188.32-.308.765-.462 1.337-.462h5.775c1.782 0 3.382.231 4.802.693 1.419.462 2.623 1.155 3.613 2.079.99.924 1.749 2.09 2.277 3.498.528 1.408.792 3.069.792 4.983zm-4.752 0c0-2.64-.572-4.543-1.716-5.709-1.144-1.166-2.717-1.749-4.719-1.749h-3.366v15.312h3.366c2.002 0 3.575-.627 4.719-1.881 1.144-1.254 1.716-3.245 1.716-5.973zm16.12-5.874c.507 0 .902.077 1.188.231.287.154.501.341.644.561.143.22.231.451.264.693.033.242.05.462.05.66s-.017.412-.05.644a1.54 1.54 0 0 1-.247.643 1.857 1.857 0 0 1-.561.528c-.243.154-.572.264-.99.33-.44.088-.875.176-1.304.264a6.164 6.164 0 0 0-1.403.495c-.704.352-1.143.902-1.32 1.65-.176.748-.264 1.65-.264 2.706v6.435c0 .682-.175 1.177-.527 1.485-.353.308-.924.462-1.716.462-1.497 0-2.245-.649-2.245-1.947V26.522c0-.484.16-.907.479-1.27.319-.364.896-.545 1.733-.545.638 0 1.154.11 1.55.33.397.22.595.616.595 1.188v.726a6.602 6.602 0 0 1 1.683-1.815c.682-.506 1.495-.759 2.442-.759zm10.197-3.729c0-.462.149-.852.446-1.171.297-.32.753-.479 1.37-.479h11.945c.617 0 1.073.176 1.37.528.297.352.445.836.445 1.452 0 .572-.126 1.045-.379 1.419-.253.374-.698.561-1.337.561h-9.338v5.379h8.448c.572 0 1 .181 1.286.544.287.364.43.842.43 1.436 0 .572-.127 1.045-.38 1.419-.253.374-.698.561-1.336.561h-8.45v7.887c0 .506-.148.957-.445 1.353-.297.396-.896.594-1.799.594-.814 0-1.396-.154-1.748-.462-.353-.308-.529-.803-.529-1.485V20.648zm24.536 3.729c2.398 0 4.306.742 5.725 2.228 1.42 1.485 2.129 3.613 2.129 6.385 0 .638-.192 1.078-.577 1.32-.386.242-.93.363-1.634.363h-9.57c.22 2.706 1.683 4.059 4.389 4.059.704 0 1.298-.115 1.782-.346a86.25 86.25 0 0 0 1.254-.611c.33-.176.638-.352.924-.528.286-.176.627-.264 1.023-.264.44 0 .847.22 1.221.66.374.44.561.935.561 1.485 0 .396-.115.742-.347 1.04-.23.297-.61.61-1.138.94-.704.44-1.545.775-2.524 1.007-.98.23-1.942.346-2.888.346-1.364 0-2.601-.176-3.713-.528-1.11-.352-2.051-.891-2.821-1.617s-1.364-1.644-1.782-2.756c-.418-1.11-.627-2.425-.627-3.943 0-1.166.165-2.304.495-3.415a8.35 8.35 0 0 1 1.551-2.954c.704-.858 1.6-1.551 2.69-2.079 1.089-.528 2.381-.792 3.877-.792zm3.267 6.897c0-.396-.066-.792-.198-1.188a3.338 3.338 0 0 0-.61-1.089 3.005 3.005 0 0 0-1.04-.792c-.418-.198-.924-.297-1.518-.297-.946 0-1.765.286-2.458.858-.694.572-1.095 1.408-1.205 2.508h7.029zm9.322 10.857c-1.562 0-2.343-.594-2.343-1.782V20.681c0-1.276.792-1.914 2.377-1.914.572 0 1.083.137 1.534.413.451.275.677.731.677 1.369v19.734c0 .66-.198 1.133-.595 1.419-.396.286-.945.429-1.65.429zm8.135 0c-1.562 0-2.343-.594-2.343-1.782V26.786c0-.638.187-1.144.561-1.518.374-.374.979-.561 1.815-.561.704 0 1.248.154 1.633.462.386.308.578.781.578 1.419v13.695c0 .66-.198 1.133-.594 1.419-.396.286-.946.429-1.65.429zm0-24.156c.638 0 1.226.198 1.766.594.539.396.808 1.012.808 1.848 0 .748-.236 1.342-.71 1.782-.473.44-1.094.66-1.864.66s-1.391-.22-1.864-.66c-.474-.44-.71-1.034-.71-1.782 0-.704.236-1.287.71-1.749.473-.462 1.094-.693 1.864-.693zm19.09 20.988c.309.418.463.847.463 1.287 0 .462-.22.891-.66 1.287-.44.396-1.023.594-1.75.594-.594 0-1.061-.165-1.402-.495a7.787 7.787 0 0 1-.809-.891l-3.069-4.125-3.333 4.356c-.242.308-.5.577-.775.809-.275.23-.687.346-1.237.346-.749 0-1.337-.214-1.766-.644-.429-.429-.644-.863-.644-1.303 0-.484.275-1.067.826-1.749l4.224-5.28-3.994-5.247a1.968 1.968 0 0 1-.429-1.221c0-.264.066-.511.198-.742.133-.232.314-.44.545-.628.231-.187.5-.335.808-.445.309-.11.638-.165.99-.165.507 0 .897.121 1.172.363.275.242.555.561.841.957l2.673 3.663 2.64-3.564c.309-.396.6-.731.875-1.007.275-.275.643-.412 1.106-.412.352 0 .681.055.99.165a2.515 2.515 0 0 1 1.32 1.056c.131.22.197.429.197.627 0 .44-.164.891-.494 1.353l-3.96 5.181 4.454 5.874z"/></g></svg>