<?xml version="1.0" encoding="UTF-8"?>
<svg width="234px" height="54px" viewBox="0 0 234 54" version="1.1" xmlns="http://www.w3.org/2000/svg" xmlns:xlink="http://www.w3.org/1999/xlink">
    <title>Group 45</title>
    <g id="Symbols" stroke="none" stroke-width="1" fill="none" fill-rule="evenodd">
        <g id="Header" transform="translate(-30.000000, -28.000000)">
            <g id="Group-45" transform="translate(30.000000, 28.000000)">
                <path d="M74.895338,27.5000134 L72.2447746,30.2152246 L72.2447746,36.0981824 C72.2447746,36.5942599 72.0938028,37.0355768 71.7922394,37.4234641 C71.4901056,37.8113514 70.8976268,38.0052951 70.0144225,38.0052951 C68.4839789,38.0052951 67.7194225,37.3700345 67.7194225,36.0981824 L67.7194225,16.9300838 C67.7194225,16.2836049 67.929338,15.8204218 68.3495493,15.5401542 C68.7699507,15.2602669 69.3244014,15.119943 70.0144225,15.119943 C70.682007,15.119943 71.2210563,15.2602669 71.6306197,15.5401542 C72.0394225,15.8204218 72.2447746,16.2836049 72.2447746,16.9300838 L72.2447746,24.7848021 L80.1962746,16.3805768 C80.497838,16.0790134 80.8104296,15.8099641 81.1338592,15.5724782 C81.4570986,15.3355627 81.8337676,15.2169148 82.2651972,15.2169148 C82.6093521,15.2169148 82.906162,15.2709148 83.1541056,15.3785345 C83.4014789,15.4865345 83.6332606,15.6264782 83.8490704,15.7987458 C84.3014155,16.1866331 84.5278732,16.6714923 84.5278732,17.2533232 C84.5278732,17.490619 84.4575211,17.7492106 84.3177676,18.0290979 C84.1772535,18.3093655 83.9888239,18.567957 83.7520986,18.8048725 L78.2247042,24.6231824 L85.4329437,34.9668444 C85.6266972,35.268788 85.723669,35.6026754 85.723669,35.9688866 C85.723669,36.5077458 85.5080493,36.9709289 85.0771901,37.3588162 C84.6459507,37.7467035 84.0428239,37.9406472 83.2670493,37.9406472 C82.771162,37.9406472 82.3564648,37.8219993 82.0225775,37.5850838 C81.6885,37.3481683 81.3812324,37.0249289 81.1015352,36.6153655 L74.895338,27.5000134 Z" id="Fill-1" fill="#211E5E"></path>
                <path d="M97.812881,30.1505577 C96.9935641,30.2368817 96.2126556,30.3338535 95.4692049,30.4414732 C94.7261345,30.5496634 94.1709232,30.6464451 93.804712,30.7323887 C92.7703458,30.9480085 92.0964866,31.2552761 91.7844655,31.6536211 C91.4716838,32.0525366 91.3157683,32.4565859 91.3157683,32.865769 C91.3157683,33.4264944 91.4880359,33.8626775 91.8327613,34.1748887 C92.1772965,34.4876704 92.7703458,34.6435859 93.6107683,34.6435859 C94.9466979,34.6435859 95.9808739,34.3365085 96.7136768,33.7223535 C97.4459092,33.1081986 97.812881,32.316262 97.812881,31.3465437 L97.812881,30.1505577 Z M102.014994,36.2274592 C102.014994,36.8528324 101.858127,37.3051775 101.546296,37.5850648 C101.233515,37.8649521 100.70036,38.0052761 99.9460711,38.0052761 C99.2997824,38.0052761 98.7877331,37.8704662 98.4108739,37.6012268 C98.0334444,37.3321775 97.8452049,36.873938 97.8452049,36.2274592 L97.8452049,35.6456282 C97.6079092,35.947762 97.3441838,36.2491352 97.0530782,36.5506986 C96.7623528,36.8528324 96.4067894,37.1220718 95.9865782,37.3587972 C95.566557,37.5962831 95.0758035,37.7896563 94.5158387,37.9406282 C93.9551134,38.0912197 93.3086345,38.1668958 92.576212,38.1668958 C90.873881,38.1668958 89.5324373,37.7200648 88.5520711,36.8254521 C87.5713246,35.9314099 87.0815218,34.7405577 87.0815218,33.2536563 C87.0815218,32.3921282 87.2265993,31.6593254 87.5177049,31.0556282 C87.8086204,30.4525014 88.2069655,29.9459662 88.7136908,29.5364028 C89.2198458,29.1274099 89.8125148,28.8039803 90.4913176,28.5666845 C91.1701204,28.329769 91.8865711,28.1464732 92.6408599,28.0171775 C93.4596063,27.8667761 94.284057,27.747938 95.1138317,27.6616141 C95.9430359,27.5758606 96.8431627,27.4999944 97.812881,27.4353465 L97.812881,26.8211915 C97.812881,26.4979521 97.7693387,26.1802268 97.6835852,25.8676352 C97.5970711,25.5556141 97.4516134,25.2696423 97.247212,25.0110507 C97.0418599,24.7524592 96.7566486,24.5478676 96.3906275,24.3968958 C96.0240359,24.2464944 95.5713106,24.1706282 95.0328317,24.1706282 C94.6881063,24.1706282 94.370381,24.1924944 94.0794655,24.2352761 C93.7883599,24.2788183 93.5082824,24.3484099 93.239043,24.4453817 C92.969043,24.5423535 92.6895359,24.6771634 92.3986204,24.849431 C92.1075148,25.0220789 91.7789514,25.2268606 91.4127401,25.4635859 C91.1322824,25.6575296 90.8683669,25.8191493 90.6206134,25.9484451 C90.3728599,26.0777408 90.0657824,26.1423887 89.6995711,26.1423887 C89.2034937,26.1423887 88.7621768,25.9539592 88.3740993,25.5767197 C87.9864021,25.1998606 87.7922683,24.7418113 87.7922683,24.2029521 C87.7922683,23.8367408 87.94305,23.4433394 88.2449937,23.0231282 C88.546557,22.6029169 89.0044162,22.2150296 89.6185711,21.8594662 C90.2329162,21.5039028 90.9868246,21.2080437 91.8814373,20.9705577 C92.7752894,20.7336423 93.8258176,20.6149944 95.0328317,20.6149944 C97.5109373,20.6149944 99.2942683,21.0998535 100.382825,22.0695718 C101.47043,23.0392901 102.014994,24.5478676 102.014994,26.5949239 L102.014994,36.2274592 Z" id="Fill-3" fill="#211E5E"></path>
                <path d="M116.625321,29.5040979 C116.625321,28.7716754 116.544511,28.0930627 116.382892,27.4676894 C116.221272,26.8428866 115.983786,26.2990838 115.671575,25.8353303 C115.359173,25.3721472 114.971286,25.0110697 114.508103,24.7524782 C114.044539,24.4938866 113.511004,24.3645908 112.908068,24.3645908 C112.282694,24.3645908 111.738892,24.4938866 111.275708,24.7524782 C110.812145,25.0110697 110.418934,25.3721472 110.095885,25.8353303 C109.772645,26.2990838 109.530215,26.8428866 109.368596,27.4676894 C109.206786,28.0930627 109.126166,28.7716754 109.126166,29.5040979 C109.126166,31.0773232 109.449406,32.3274993 110.095885,33.2536754 C110.742363,34.1804218 111.679758,34.6436049 112.908068,34.6436049 C114.136377,34.6436049 115.062554,34.1587458 115.687737,33.1890275 C116.312539,32.2193092 116.625321,30.9909993 116.625321,29.5040979 L116.625321,29.5040979 Z M104.827082,22.8130415 C104.827082,22.2528866 105.009807,21.7897035 105.376589,21.423112 C105.7428,21.0569007 106.335279,20.8736049 107.154215,20.8736049 C107.692694,20.8736049 108.183258,20.9867387 108.625145,21.2130063 C109.066462,21.4392739 109.287786,21.8866754 109.287786,22.55445 L109.287786,23.1686049 C109.459863,22.9100134 109.691835,22.6303162 109.982561,22.3281824 C110.273666,22.026619 110.623715,21.7463514 111.033279,21.4877599 C111.442272,21.2291683 111.906025,21.0190627 112.423018,20.857443 C112.940392,20.6958232 113.522223,20.6150134 114.168701,20.6150134 C115.332363,20.6150134 116.355511,20.8363373 117.239286,21.2776542 C118.12287,21.7195415 118.860807,22.3336965 119.453666,23.120119 C120.045955,23.9069218 120.487842,24.8388021 120.778948,25.9161401 C121.069863,26.9938585 121.215321,28.1681683 121.215321,29.43945 C121.215321,30.7324077 121.048187,31.92345 120.7143,33.0112458 C120.379842,34.099612 119.894983,35.0370063 119.259532,35.8234289 C118.623892,36.6104218 117.842413,37.2245768 116.916237,37.6658937 C115.9893,38.1074007 114.933448,38.3285345 113.74849,38.3285345 C112.886392,38.3285345 112.169561,38.2260486 111.598758,38.021457 C111.027765,37.8164852 110.559068,37.5850838 110.192856,37.3264923 C109.783293,37.0466049 109.449406,36.7123373 109.190624,36.32445 L109.190624,42.7892387 C109.190624,43.4568232 109.017976,43.9367387 108.673631,44.2276542 C108.328525,44.5185697 107.757342,44.6640275 106.960462,44.6640275 C105.538018,44.6640275 104.827082,44.0711683 104.827082,42.8862106 L104.827082,22.8130415 Z" id="Fill-5" fill="#211E5E"></path>
                <path d="M137.021444,32.898131 C137.021444,34.7082718 136.363937,36.0658775 135.049684,36.9709479 C133.73505,37.8760183 131.946775,38.3285535 129.683909,38.3285535 C128.390951,38.3285535 127.232423,38.1775817 126.209085,37.8760183 C125.185367,37.5744549 124.361106,37.1972155 123.736304,36.7446803 C123.456036,36.5507366 123.24593,36.3299831 123.105987,36.0820394 C122.965663,35.8344761 122.895881,35.5920465 122.895881,35.3547507 C122.895881,34.9238915 123.003501,34.5143282 123.21912,34.1264408 C123.391388,33.8032014 123.612142,33.533962 123.881951,33.3183423 C124.151001,33.1031028 124.468536,32.9951028 124.835318,32.9951028 C125.158557,32.9951028 125.470768,33.0941662 125.772712,33.290962 C126.074275,33.4885183 126.413677,33.7077507 126.790916,33.9486592 C127.167775,34.1899479 127.604149,34.4091803 128.100036,34.6061662 C128.595543,34.8037225 129.220346,34.9022155 129.974825,34.9022155 C130.901191,34.9022155 131.569346,34.7512437 131.978909,34.4487296 C132.388092,34.1465958 132.593064,33.7360817 132.593064,33.2173775 C132.593064,32.8289197 132.447606,32.4727859 132.156691,32.1485958 C131.865775,31.8244056 131.267782,31.5869197 130.362712,31.4355676 L128.423275,31.1117577 C127.625825,30.982462 126.898536,30.793462 126.241409,30.545138 C125.583902,30.2964338 125.018233,29.9728141 124.544402,29.5727577 C124.070191,29.1732718 123.70398,28.687462 123.445578,28.115138 C123.186796,27.5430042 123.057691,26.8465183 123.057691,26.0253 C123.057691,25.1616803 123.229768,24.3948423 123.574684,23.7251662 C123.919219,23.0554901 124.404078,22.4886803 125.029261,22.0241662 C125.654064,21.5600324 126.403029,21.2088423 127.275775,20.9715465 C128.148522,20.7342507 129.102268,20.6150324 130.136444,20.6150324 C131.644642,20.6150324 132.872951,20.7928141 133.821374,21.1483775 C134.769416,21.5039408 135.469895,21.8650183 135.92243,22.2312296 C136.202127,22.4685254 136.396261,22.7054408 136.504261,22.9423563 C136.611881,23.1796521 136.665881,23.4165676 136.665881,23.6534831 C136.665881,24.1706662 136.525557,24.6125535 136.24567,24.9787648 C136.073022,25.1943845 135.89524,25.3615183 135.712325,25.4797859 C135.529029,25.5984338 135.297247,25.6575676 135.01736,25.6575676 C134.780064,25.6575676 134.537635,25.6090817 134.290071,25.5121099 C134.042127,25.415138 133.832022,25.3130324 133.659754,25.2050324 C133.077923,24.8606873 132.517388,24.5802296 131.978909,24.3646099 C131.44005,24.1493704 130.739571,24.0413704 129.877853,24.0413704 C129.03743,24.0413704 128.417761,24.1868282 128.019226,24.4777437 C127.620311,24.7686592 127.421233,25.1297366 127.421233,25.5605958 C127.421233,25.9484831 127.566691,26.2878845 127.857606,26.5788 C128.148522,26.8697155 128.778839,27.1014972 129.748557,27.2737648 L131.461726,27.5970042 C133.422268,27.9635958 134.839578,28.5454268 135.712325,29.3424972 C136.585071,30.1399479 137.021444,31.3254761 137.021444,32.898131" id="Fill-7" fill="#211E5E"></path>
                <path d="M150.144889,27.3706796 C150.144889,26.9791796 150.080242,26.5878697 149.950946,26.1959894 C149.82165,25.8041092 149.622192,25.4449331 149.352953,25.1186514 C149.083333,24.7923697 148.743932,24.5313063 148.334749,24.3352711 C147.925185,24.1392359 147.429868,24.0413134 146.847847,24.0413134 C145.921101,24.0413134 145.118516,24.3246232 144.439713,24.8904824 C143.760911,25.4559613 143.367509,26.2828838 143.259889,27.3706796 L150.144889,27.3706796 Z M146.961551,20.6149754 C149.315115,20.6149754 151.187812,21.3422641 152.580974,22.7968415 C153.973946,24.251419 154.670242,26.3363134 154.670242,29.0515246 C154.670242,29.6768979 154.480861,30.107757 154.103051,30.3444824 C153.724861,30.5819683 153.189995,30.7000458 152.498453,30.7000458 L143.09827,30.7000458 C143.313509,33.3506092 144.746791,34.6758908 147.397354,34.6758908 C148.086805,34.6758908 148.668636,34.562757 149.142847,34.3364894 C149.616678,34.1102218 150.026242,33.9111444 150.371157,33.7384965 C150.694587,33.5662289 150.99596,33.3941514 151.276227,33.2213134 C151.556115,33.0490458 151.890573,32.9627218 152.27846,32.9627218 C152.709129,32.9627218 153.107664,33.1783415 153.474256,33.6092007 C153.840467,34.0406303 154.023763,34.5254894 154.023763,35.0637782 C154.023763,35.4516655 153.910819,35.7910669 153.684361,36.0819824 C153.458094,36.3728979 153.086558,36.6799754 152.569185,37.0032148 C151.879354,37.4346444 151.055094,37.7628275 150.096404,37.9890951 C149.137333,38.2153627 148.194425,38.3284965 147.268058,38.3284965 C145.931749,38.3284965 144.719601,38.1558486 143.631615,37.8113134 C142.543249,37.4669683 141.622016,36.9385669 140.867918,36.2274401 C140.113439,35.5163134 139.531608,34.616757 139.122425,33.5283908 C138.712861,32.4405951 138.50827,31.152581 138.50827,29.6656796 C138.50827,28.5236937 138.669889,27.4085176 138.99408,26.3201514 C139.31808,25.2323556 139.825565,24.267581 140.516347,23.4271585 C141.207319,22.5867359 142.087101,21.9079331 143.155882,21.39075 C144.224474,20.8735669 145.493284,20.6149754 146.961551,20.6149754 L146.961551,20.6149754 Z" id="Fill-9" fill="#211E5E"></path>
                <path d="M158.630286,38.0052761 C157.089004,38.0052761 156.318744,37.4234451 156.318744,36.2597831 L156.318744,16.9947127 C156.318744,15.7452972 157.099842,15.1199239 158.66261,15.1199239 C159.226758,15.1199239 159.731392,15.2547338 160.176321,15.5239732 C160.621251,15.7937831 160.844096,16.2406141 160.844096,16.8654169 L160.844096,36.1951352 C160.844096,36.8416141 160.648441,37.3051775 160.257701,37.5850648 C159.866772,37.8649521 159.32411,38.0052761 158.630286,38.0052761" id="Fill-11" fill="#211E5E"></path>
                <g id="Group-25" opacity="0.4" transform="translate(169.035211, 15.245683)" fill="#211E5E">
                    <path d="M4.26767324,5.31390423 C4.26767324,5.06196761 4.23991268,4.82866479 4.18458169,4.61342535 C4.12906056,4.39875634 4.04539859,4.21165775 3.9341662,4.05212958 C3.82312394,3.89279155 3.68584225,3.76881972 3.52289155,3.6798338 C3.36013099,3.59084789 3.17094085,3.54654507 2.95627183,3.54654507 C2.74141268,3.54654507 2.55412394,3.59084789 2.39478592,3.6798338 C2.23544789,3.76881972 2.10025775,3.89279155 1.98921549,4.05212958 C1.8779831,4.21165775 1.79451127,4.39875634 1.73899014,4.61342535 C1.68346901,4.82866479 1.65570845,5.06196761 1.65570845,5.31390423 C1.65570845,5.85485493 1.7667507,6.28647465 1.98921549,6.60876338 C2.21149014,6.93105211 2.53396901,7.09229155 2.95627183,7.09229155 C3.39321549,7.09229155 3.72139859,6.92382676 3.93987042,6.5865169 C4.15834225,6.24939718 4.26767324,5.82500282 4.26767324,5.31390423 L4.26767324,5.31390423 Z M0.177173239,1.0007493 C0.177173239,0.808326761 0.238398592,0.654692958 0.360659155,0.539657746 C0.483109859,0.424812676 0.666595775,0.367390141 0.910926761,0.367390141 C1.12578592,0.367390141 1.31288451,0.404657746 1.47222254,0.478432394 C1.6317507,0.552587324 1.71141972,0.708122535 1.71141972,0.94541831 L1.71141972,3.13527042 C1.77036338,3.04628451 1.85022254,2.9498831 1.95023662,2.8460662 C2.05044085,2.74243944 2.17060986,2.64622817 2.31150423,2.55705211 C2.45220845,2.46825634 2.61173662,2.39581268 2.78951831,2.34029155 C2.96710986,2.28477042 3.16751831,2.25700986 3.38979296,2.25700986 C3.78965915,2.25700986 4.14370141,2.3330662 4.45115915,2.48498873 C4.75880704,2.63691127 5.01625775,2.84796761 5.22370141,3.11853803 C5.43114507,3.38910845 5.58668028,3.70949577 5.69049718,4.07989014 C5.79412394,4.45066479 5.84622254,4.85452394 5.84622254,5.29146761 C5.84622254,5.73620704 5.78670845,6.14577042 5.66844085,6.51977746 C5.54979296,6.89416479 5.38094789,7.21645352 5.16247606,7.4868338 C4.94400423,7.75759437 4.67704648,7.9686507 4.36236338,8.12057324 C4.04749014,8.27230563 3.69344789,8.34836197 3.3006169,8.34836197 C2.98954648,8.34836197 2.73190563,8.3093831 2.52826479,8.23161549 C2.32424366,8.15384789 2.15958169,8.06695352 2.03351831,7.97055211 C1.88539859,7.85931972 1.7667507,7.73344648 1.67795493,7.59255211 L1.67795493,7.65910141 C1.67795493,7.88898169 1.61844085,8.04280563 1.4999831,8.12057324 C1.38133521,8.19834085 1.18491972,8.23712958 0.910926761,8.23712958 C0.421694366,8.23712958 0.177173239,8.03348873 0.177173239,7.62582676 L0.177173239,1.0007493 Z" id="Fill-13"></path>
                    <path d="M7.91934718,8.23712958 C7.38942465,8.23712958 7.12436831,8.03710141 7.12436831,7.63704507 L7.12436831,3.06834085 C7.12436831,2.85348169 7.18787535,2.68330563 7.3146993,2.55705211 C7.44152324,2.43117887 7.64687535,2.36824225 7.93056549,2.36824225 C8.16919225,2.36824225 8.3541993,2.4201507 8.48482606,2.52377746 C8.61526268,2.62778451 8.68067113,2.78693239 8.68067113,3.00179155 L8.68067113,7.61479859 C8.68067113,7.83707324 8.61336127,7.99660141 8.47893169,8.09262254 C8.34469225,8.1888338 8.15816408,8.23712958 7.91934718,8.23712958 M7.9138331,0.100622535 C8.12869225,0.100622535 8.32662887,0.167361972 8.50859366,0.300650704 C8.68998803,0.433939437 8.78068521,0.641573239 8.78068521,0.923171831 C8.78068521,1.17510845 8.7010162,1.37513662 8.54167817,1.52325634 C8.38253028,1.67175634 8.17299507,1.74553099 7.9138331,1.74553099 C7.6541007,1.74553099 7.44475563,1.67175634 7.28560775,1.52325634 C7.12626972,1.37513662 7.0466007,1.17510845 7.0466007,0.923171831 C7.0466007,0.686066197 7.12626972,0.489650704 7.28560775,0.334115493 C7.44475563,0.178390141 7.6541007,0.100622535 7.9138331,0.100622535" id="Fill-15"></path>
                    <path d="M14.7499289,6.48093169 C14.7499289,7.10326268 14.5236613,7.57024859 14.0716965,7.88150915 C13.6197317,8.19276972 13.0046261,8.34830493 12.2265697,8.34830493 C11.7818303,8.34830493 11.3834852,8.29639648 11.0315345,8.19276972 C10.6795838,8.08914296 10.3960838,7.95927676 10.1814148,7.80374155 C10.0848232,7.73681197 10.0125697,7.66113592 9.96446408,7.57595282 C9.91635845,7.49076972 9.8924007,7.40748803 9.8924007,7.32572746 C9.8924007,7.17760775 9.92928803,7.03671338 10.003443,6.90342465 C10.0627669,6.79219225 10.1386331,6.69940352 10.2312317,6.62543873 C10.3240204,6.55147394 10.4331613,6.51439648 10.5592246,6.51439648 C10.6702669,6.51439648 10.7776965,6.54824155 10.8813232,6.61593169 C10.9851401,6.68400211 11.1016965,6.75948803 11.2315627,6.84200915 C11.3612387,6.9251007 11.51145,7.00058662 11.6818162,7.06827676 C11.8521824,7.13634718 12.0670415,7.17019225 12.3265838,7.17019225 C12.6452599,7.17019225 12.87495,7.1182838 13.0156542,7.01408662 C13.1563585,6.91026972 13.2269007,6.76899507 13.2269007,6.5908331 C13.2269007,6.45716408 13.1770838,6.33452324 13.0768796,6.22329085 C12.9766754,6.11167817 12.7713232,6.02991761 12.4598725,5.97781901 L11.7928585,5.86658662 C11.5188655,5.8222838 11.2686401,5.75706549 11.0427528,5.67169225 C10.8164852,5.58631901 10.6219711,5.47489648 10.4592106,5.33742465 C10.2960697,5.19995282 10.1700063,5.03300915 10.0812106,4.83621338 C9.99222465,4.63941761 9.94773169,4.39984014 9.94773169,4.11729085 C9.94773169,3.82048099 10.0070556,3.55694577 10.1257035,3.32649507 C10.2441613,3.09623451 10.4109148,2.90153028 10.6257739,2.74162183 C10.840443,2.58190352 11.0982739,2.46135423 11.3983162,2.37959366 C11.6985486,2.2978331 12.0265415,2.25714296 12.3821049,2.25714296 C12.9008092,2.25714296 13.323112,2.31817817 13.6492035,2.44043873 C13.9752951,2.5626993 14.2162035,2.68667113 14.3719289,2.81292465 C14.4681401,2.89430493 14.5346894,2.97587535 14.5717669,3.05744577 C14.6088444,3.13882606 14.6274782,3.22039648 14.6274782,3.3019669 C14.6274782,3.47974859 14.5791824,3.63167113 14.4831613,3.75754437 C14.4236472,3.83188944 14.362612,3.88912183 14.2996754,3.92981197 C14.2365486,3.97069225 14.1566894,3.99103732 14.0604782,3.99103732 C13.9789077,3.99103732 13.8954359,3.97430493 13.810443,3.94103028 C13.7250697,3.90756549 13.6528162,3.87276972 13.5938725,3.83531197 C13.3936542,3.71685423 13.2010415,3.62045282 13.0156542,3.54648803 C12.8302669,3.4723331 12.5893585,3.43525563 12.293119,3.43525563 C12.0041049,3.43525563 11.7911472,3.48545282 11.6542458,3.58527676 C11.5167739,3.68529085 11.4483232,3.80964296 11.4483232,3.95776268 C11.4483232,4.09105141 11.4985204,4.20779789 11.5983444,4.30781197 C11.6985486,4.40782606 11.9153092,4.48768521 12.2488162,4.54681901 L12.8378725,4.65786127 C13.512112,4.78392465 13.9996331,4.98414296 14.2996754,5.25832606 C14.5997176,5.53250915 14.7499289,5.93998099 14.7499289,6.48093169" id="Fill-17"></path>
                    <path d="M19.2626176,2.2570669 C19.6550683,2.2570669 19.9758359,2.31810211 20.2241599,2.44055282 C20.4722937,2.56262324 20.6890542,2.7388838 20.8744415,2.9683838 C21.0668641,3.22032042 21.1817092,3.50039789 21.2189768,3.80766549 C21.2558641,4.11512324 21.2743077,4.40603873 21.2743077,4.68022183 L21.2743077,7.62569366 C21.2743077,7.84074296 21.2115613,7.99665845 21.0854979,8.09248944 C20.9594345,8.18889085 20.7668218,8.23718662 20.5076599,8.23718662 C20.2853852,8.23718662 20.1018993,8.19060211 19.9572021,8.09800352 C19.8128852,8.00521479 19.7406317,7.84720775 19.7406317,7.62436268 L19.7406317,4.70513028 C19.7406317,4.37846831 19.7071669,4.14079225 19.6404275,3.99210211 C19.5740683,3.84341197 19.4719627,3.73921479 19.3348711,3.67989085 C19.1975894,3.62037676 19.0327373,3.59090493 18.8401246,3.59090493 C18.6473218,3.59090493 18.4790472,3.62037676 18.33435,3.67989085 C18.1900331,3.73921479 18.0694838,3.81375 17.9732725,3.90273592 C17.8768711,3.99210211 17.8027162,4.08869366 17.7509979,4.19251056 C17.6988993,4.29651761 17.662012,4.39310915 17.6397655,4.48209507 C17.6024979,4.61595423 17.5821528,4.76825704 17.5785401,4.93919366 C17.5747373,5.10994014 17.5728359,5.25501761 17.5728359,5.37385563 L17.5728359,7.59108803 C17.5728359,7.82115845 17.5118007,7.98658099 17.38935,8.08678521 C17.2674697,8.18698944 17.06535,8.23718662 16.7837514,8.23718662 C16.5540613,8.23718662 16.3726669,8.18889085 16.239188,8.09248944 C16.1057092,7.99665845 16.0389697,7.83713028 16.0389697,7.61485563 L16.0389697,0.989778169 C16.0389697,0.78975 16.1001951,0.636116197 16.2224556,0.528496479 C16.3445261,0.421257042 16.5466458,0.367447183 16.8280542,0.367447183 C16.9244556,0.367447183 17.0170542,0.376573944 17.1062303,0.395207746 C17.1950261,0.413651408 17.2746951,0.445024648 17.3450472,0.489327465 C17.4153993,0.533820423 17.4711106,0.596757042 17.5118007,0.677947183 C17.5524908,0.759327465 17.5728359,0.866376761 17.5728359,0.999475352 L17.5728359,3.07277113 C17.7211458,2.87445423 17.9358148,2.68887676 18.2177937,2.51603873 C18.4992021,2.34358099 18.8475401,2.2570669 19.2626176,2.2570669" id="Fill-19"></path>
                    <path d="M26.5321775,4.58007465 C26.5321775,4.44545493 26.509931,4.31102535 26.4652479,4.17602535 C26.4209451,4.04140563 26.3524944,3.91781408 26.2597056,3.80563099 C26.167107,3.69344789 26.0503606,3.60389155 25.9098465,3.53639155 C25.7685718,3.46889155 25.5983958,3.43523662 25.3983676,3.43523662 C25.0796915,3.43523662 24.803607,3.53277887 24.5703042,3.72710282 C24.3368113,3.92180704 24.2016211,4.20606761 24.1645437,4.58007465 L26.5321775,4.58007465 Z M25.4373465,2.25712394 C26.2467761,2.25712394 26.8907831,2.50715915 27.3697479,3.00741972 C27.8489028,3.50749014 28.0882901,4.22432113 28.0882901,5.15810282 C28.0882901,5.37315211 28.023262,5.52127183 27.8932056,5.60284225 C27.7633394,5.68460282 27.5792831,5.72510282 27.341607,5.72510282 L24.1090225,5.72510282 C24.1829873,6.63644789 24.6758324,7.09221549 25.5871775,7.09221549 C25.8242831,7.09221549 26.0245014,7.05342676 26.1876423,6.97565915 C26.3504028,6.89770141 26.4912972,6.82944085 26.6099451,6.7701169 C26.7209873,6.71079296 26.8248042,6.65146901 26.9212056,6.59214507 C27.017607,6.53282113 27.132262,6.50315915 27.2657408,6.50315915 C27.4140507,6.50315915 27.550762,6.57731408 27.6770155,6.7254338 C27.8028887,6.87374366 27.8660155,7.04049718 27.8660155,7.22569437 C27.8660155,7.3589831 27.8270366,7.47572958 27.749269,7.5759338 C27.6715014,7.67575775 27.5435366,7.78147606 27.3659451,7.89270845 C27.1286493,8.04101831 26.8451493,8.15377183 26.5154451,8.23172958 C26.1857408,8.30949718 25.8615507,8.34828592 25.5428746,8.34828592 C25.0833042,8.34828592 24.6663254,8.28896197 24.2923183,8.17050423 C23.917931,8.05204648 23.6011563,7.87046197 23.3419944,7.6257507 C23.0824521,7.38122958 22.8824239,7.07187042 22.7417197,6.69767324 C22.6008254,6.32347606 22.5306634,5.88063803 22.5306634,5.36953944 C22.5306634,4.97670845 22.5861845,4.59319437 22.697607,4.21899718 C22.8088394,3.8448 22.9835789,3.51300423 23.2212549,3.22418028 C23.4585507,2.93497606 23.7612549,2.70167324 24.128607,2.52389155 C24.4961493,2.34591972 24.9327127,2.25712394 25.4373465,2.25712394 L25.4373465,2.25712394 Z" id="Fill-21"></path>
                    <path d="M32.1010225,2.2570669 C32.2713887,2.2570669 32.4046775,2.28292606 32.5010789,2.33483451 C32.5972901,2.38674296 32.6695437,2.44967958 32.7178394,2.52383451 C32.7659451,2.59798944 32.795607,2.67575704 32.8068254,2.75732746 C32.8180437,2.83889789 32.8233676,2.91286268 32.8233676,2.97941197 C32.8233676,3.04615141 32.8180437,3.11840493 32.8068254,3.19617254 C32.795607,3.27413028 32.7678465,3.3463838 32.7233535,3.41312324 C32.6790507,3.47967254 32.6159239,3.53918662 32.5343535,3.59090493 C32.4527831,3.64300352 32.3417408,3.6797007 32.2008465,3.70194718 C32.0527268,3.73160915 31.9065085,3.76146127 31.7620014,3.7909331 C31.6174944,3.82059507 31.4598676,3.87630634 31.2893113,3.95768662 C31.0522056,4.07633451 30.9040859,4.26153169 30.8449521,4.51346831 C30.785438,4.76540493 30.7559662,5.06925 30.7559662,5.42500352 L30.7559662,7.59260915 C30.7559662,7.82248944 30.6964521,7.98886268 30.5779944,8.09248944 C30.4593465,8.19630634 30.2669239,8.24840493 29.9999662,8.24840493 C29.496093,8.24840493 29.2443465,8.02974296 29.2443465,7.59260915 L29.2443465,2.97941197 C29.2443465,2.81665141 29.2979662,2.67385563 29.4052056,2.55159507 C29.5128254,2.42933451 29.7071493,2.36810915 29.9891282,2.36810915 C30.203607,2.36810915 30.3777761,2.40537676 30.5116352,2.47934155 C30.6449239,2.55349648 30.7112831,2.68678521 30.7112831,2.87939789 L30.7112831,3.12391901 C30.8597831,2.88700352 31.048593,2.68317254 31.2784732,2.5126162 C31.5081634,2.34225 31.7821563,2.2570669 32.1010225,2.2570669" id="Fill-23"></path>
                </g>
                <g id="Group-40" opacity="0.4" transform="translate(169.415493, 26.463993)" fill="#211E5E">
                    <path d="M9.47854014,3.98810915 L6.96925141,10.9284401 C6.8738007,11.2041444 6.72282887,11.3971373 6.51652606,11.5083697 C6.3100331,11.619412 6.07425845,11.6751232 5.80958239,11.6751232 C5.42854014,11.6751232 5.14256831,11.5984965 4.95185704,11.4448627 C4.76133592,11.291419 4.61302606,11.0769401 4.50711761,10.8016162 L2.14100493,4.51232746 L2.14100493,10.9128486 C2.14100493,11.156419 2.06399789,11.3655739 1.91055423,11.5401232 C1.75711056,11.7148627 1.4738007,11.8021373 1.06081479,11.8021373 C0.669124648,11.8021373 0.396272535,11.7281725 0.242828873,11.5798627 C0.0891950704,11.431743 0.0127584507,11.1934965 0.0127584507,10.8651232 L0.0127584507,1.71687676 C0.0127584507,1.3255669 0.144906338,1.04453873 0.409772535,0.874933099 C0.67406831,0.705897887 1.03438521,0.62109507 1.48958239,0.62109507 C1.95561761,0.62109507 2.31251197,0.708369718 2.56159648,0.883109155 C2.81068099,1.05765845 2.98789225,1.30408099 3.09361056,1.6216162 L5.80958239,9.40389085 L8.41432183,1.68531338 C8.54152606,1.30408099 8.74535704,1.03160915 9.02581479,0.867137324 C9.30627254,0.703426056 9.6901669,0.62109507 10.1773077,0.62109507 C10.6222373,0.62109507 10.9715261,0.703426056 11.2255542,0.867137324 C11.4795824,1.03160915 11.6067866,1.28278521 11.6067866,1.6216162 L11.6067866,10.9128486 C11.6067866,11.156419 11.5295894,11.3655739 11.3763359,11.5401232 C11.2228923,11.7148627 10.9397725,11.8021373 10.5267866,11.8021373 C10.1455542,11.8021373 9.87574437,11.7199965 9.71678662,11.5560951 C9.55801901,11.3918134 9.47854014,11.156419 9.47854014,10.8491514 L9.47854014,3.98810915 Z" id="Fill-26"></path>
                    <path d="M19.2297613,6.57683873 C19.2297613,6.38460634 19.1981979,6.19237394 19.1345007,5.99957113 C19.0709937,5.80714859 18.9730711,5.63050775 18.840543,5.47040915 C18.7082049,5.31012042 18.5414514,5.18196549 18.3404725,5.08556408 C18.1391134,4.98897254 17.8957331,4.94105704 17.6097613,4.94105704 C17.1545641,4.94105704 16.7600218,5.08024014 16.4267049,5.35803592 C16.0930077,5.63621197 15.8998246,6.04216268 15.8467754,6.57683873 L19.2297613,6.57683873 Z M17.6654725,3.25755 C18.8219092,3.25755 19.7421908,3.61482465 20.4266979,4.32956408 C21.1112049,5.04430352 21.4532683,6.06859225 21.4532683,7.40281056 C21.4532683,7.71007817 21.3602894,7.92170493 21.174712,8.03807113 C20.9887542,8.15481761 20.7257894,8.21281056 20.386388,8.21281056 L15.7674866,8.21281056 C15.8732049,9.51508521 16.5776768,10.1663176 17.8795711,10.1663176 C18.2185923,10.1663176 18.5045641,10.1107965 18.7376768,9.99975423 C18.970219,9.88833169 19.171388,9.7905993 19.3409937,9.70598662 C19.4997613,9.6211838 19.647881,9.53638099 19.7857331,9.45157817 C19.9232049,9.36677535 20.0874866,9.32456408 20.2780077,9.32456408 C20.4898246,9.32456408 20.6854796,9.43066268 20.8657331,9.64228944 C21.0456063,9.85410634 21.135543,10.0923528 21.135543,10.3568387 C21.135543,10.54755 21.0800218,10.7141134 20.9687894,10.8572894 C20.8579373,11.0000852 20.675212,11.151057 20.4211838,11.3100148 C20.0819725,11.5218317 19.6771627,11.6830711 19.2059937,11.7943035 C18.7346345,11.9053458 18.2714514,11.961057 17.8162542,11.961057 C17.1595077,11.961057 16.5639866,11.8762542 16.0295007,11.7070289 C15.4946345,11.5376134 15.0420993,11.2782613 14.6715148,10.9285923 C14.3009303,10.5791134 14.0149585,10.1372261 13.8139796,9.60274014 C13.6128106,9.06806408 13.5124162,8.43508521 13.5124162,7.70475423 C13.5124162,7.14345845 13.5917049,6.59566268 13.7508528,6.06079648 C13.9098106,5.52631056 14.1594655,5.0520993 14.499057,4.63949366 C14.8382683,4.22631761 15.2708387,3.8930007 15.7956275,3.63859225 C16.3207965,3.38475423 16.9442683,3.25755 17.6654725,3.25755 L17.6654725,3.25755 Z" id="Fill-28"></path>
                    <path d="M24.9633254,7.62529437 C24.9633254,8.35581549 25.1169592,8.95951268 25.4242268,9.43562535 C25.7311141,9.91211831 26.1965789,10.1503648 26.8215718,10.1503648 C27.425269,10.1503648 27.8857901,9.9227662 28.2035155,9.46756901 C28.5212408,9.01237183 28.6800085,8.39802676 28.6800085,7.62529437 C28.6800085,7.26516761 28.6400789,6.9318507 28.5607901,6.6245831 C28.4813113,6.31750563 28.3672268,6.05035775 28.2192972,5.82256901 C28.0711775,5.59497042 27.8802761,5.41756901 27.6475437,5.29055493 C27.4148113,5.1633507 27.1497549,5.09984366 26.8533254,5.09984366 C26.5460577,5.09984366 26.2737761,5.1633507 26.0357197,5.29055493 C25.7974732,5.41756901 25.5987761,5.59497042 25.4398183,5.82256901 C25.2810507,6.05035775 25.1620225,6.31750563 25.0825437,6.6245831 C25.0032549,6.9318507 24.9633254,7.26516761 24.9633254,7.62529437 L24.9633254,7.62529437 Z M30.7922831,10.9286113 C30.7922831,11.5112028 30.4428042,11.8021183 29.7442268,11.8021183 C29.3521563,11.8021183 29.0713183,11.7330972 28.9022831,11.5956254 C28.7326775,11.4583437 28.6482549,11.2358789 28.6482549,10.9286113 L28.6482549,10.8651042 C28.5104028,11.0769211 28.3307197,11.2621183 28.1080648,11.4210761 C27.9175437,11.558738 27.6739732,11.6830901 27.3775437,11.7943225 C27.0811141,11.9053648 26.7209873,11.9610761 26.2975437,11.9610761 C25.7257901,11.9610761 25.2146915,11.8523155 24.7650085,11.6355549 C24.3149451,11.4186042 23.9390366,11.1168507 23.6372831,10.7301042 C23.3353394,10.343738 23.1054592,9.8832169 22.9465014,9.3483507 C22.7877338,8.81367465 22.7082549,8.22861127 22.7082549,7.5933507 C22.7082549,6.96892817 22.7877338,6.3918507 22.9465014,5.86211831 C23.1054592,5.3327662 23.3408535,4.87509718 23.6530648,4.4883507 C23.9654662,4.10198451 24.3465085,3.80023099 24.7965718,3.58309014 C25.2464451,3.36613944 25.7575437,3.25756901 26.3294873,3.25756901 C26.6468324,3.25756901 26.9301423,3.29464648 27.1788465,3.36880141 C27.427931,3.4427662 27.6448817,3.5382169 27.830269,3.65477324 C28.0154662,3.77113944 28.171762,3.90366761 28.2985859,4.05178732 C28.4257901,4.19990704 28.5261845,4.3430831 28.6005296,4.48055493 L28.6005296,1.39932254 C28.6005296,1.06049155 28.711762,0.83555493 28.9340366,0.724322535 C29.1565014,0.613280282 29.4105296,0.557759155 29.6965014,0.557759155 C30.0668958,0.557759155 30.3422197,0.637047887 30.5222831,0.795625352 C30.7023465,0.954583099 30.7922831,1.17172394 30.7922831,1.44704789 L30.7922831,10.9286113 Z" id="Fill-30"></path>
                    <path d="M38.8443486,3.52753099 C39.087919,3.52753099 39.2812923,3.59902394 39.4242782,3.74200986 C39.5670739,3.88480563 39.6385669,4.08882676 39.6385669,4.35350282 C39.6385669,4.59707324 39.5961655,4.80071408 39.5115528,4.96499577 C39.42675,5.12908732 39.3157077,5.28519296 39.1780458,5.43331268 L35.1596092,9.92824225 L39.0508415,9.92824225 C39.2520106,9.92824225 39.4134401,10.0050592 39.5353204,10.1585028 C39.6566303,10.3121366 39.7180458,10.5157775 39.7180458,10.7698056 C39.7180458,11.0453197 39.6648063,11.2675944 39.559088,11.4368197 C39.4529894,11.6062352 39.2624683,11.691038 38.9875246,11.691038 L33.0631162,11.691038 C32.8195458,11.691038 32.6237007,11.6117493 32.475581,11.4527915 C32.3274613,11.2940239 32.2533063,11.0930451 32.2533063,10.8490944 C32.2533063,10.6059042 32.3088275,10.3836296 32.4198697,10.1820803 C32.5312923,9.98110141 32.6556444,9.80655211 32.7933063,9.65824225 L36.6527852,5.2905169 L33.1903204,5.2905169 C32.9148063,5.2905169 32.7242852,5.20058028 32.6185669,5.0205169 C32.5124683,4.84064366 32.4597993,4.62350282 32.4597993,4.36909437 C32.4597993,4.12590423 32.5179824,3.92454507 32.6343486,3.76577746 C32.7507148,3.60700986 32.9148063,3.52753099 33.1268134,3.52753099 L38.8443486,3.52753099 Z" id="Fill-32"></path>
                    <path d="M42.3309423,11.8021754 C41.5736113,11.8021754 41.1950408,11.5162035 41.1950408,10.9446401 L41.1950408,4.41691479 C41.1950408,4.10983732 41.2855479,3.86664718 41.4671324,3.68639366 C41.6481465,3.50652042 41.9417239,3.41639366 42.3469141,3.41639366 C42.6882169,3.41639366 42.9523225,3.49054859 43.1388507,3.63866831 C43.3253789,3.78716831 43.418738,4.0147669 43.418738,4.32165423 L43.418738,10.9128866 C43.418738,11.230612 43.3227169,11.4584007 43.1304845,11.5956824 C42.9384423,11.7331542 42.6718648,11.8021754 42.3309423,11.8021754 M42.3227662,0.176203521 C42.6296535,0.176203521 42.9129634,0.271654225 43.1725056,0.462175352 C43.4318577,0.652696479 43.5615338,0.949316197 43.5615338,1.35165423 C43.5615338,1.71159085 43.4478296,1.99756268 43.220231,2.20918944 C42.9924423,2.42138662 42.6931606,2.52691479 42.3227662,2.52691479 C41.9519915,2.52691479 41.6529,2.42138662 41.4253014,2.20918944 C41.1977028,1.99756268 41.0839986,1.71159085 41.0839986,1.35165423 C41.0839986,1.01282324 41.1977028,0.732175352 41.4253014,0.509900704 C41.6529,0.287435915 41.9519915,0.176203521 42.3227662,0.176203521" id="Fill-34"></path>
                    <path d="M50.2160261,3.25762606 C50.7664838,3.25762606 51.2247232,3.3449007 51.5897937,3.51964014 C51.9550542,3.69418944 52.2699275,3.94593592 52.5347937,4.27411901 C52.8099275,4.63405563 52.974019,5.03392183 53.0270683,5.47314718 C53.0801176,5.91256268 53.106357,6.32821056 53.106357,6.7199007 L53.106357,10.9284782 C53.106357,11.2357458 53.0164204,11.4584007 52.8365472,11.5956824 C52.6562937,11.7331542 52.3811599,11.8021754 52.0105754,11.8021754 C51.6930401,11.8021754 51.4308359,11.7356261 51.2247232,11.603288 C51.0180401,11.4707599 50.9147937,11.2450627 50.9147937,10.9265768 L50.9147937,6.75545704 C50.9147937,6.28866127 50.8670683,5.94906972 50.7719979,5.73668239 C50.6765472,5.52410493 50.5308993,5.37541479 50.3350542,5.29080211 C50.1392092,5.20580915 49.9032444,5.16321761 49.6283007,5.16321761 C49.3423289,5.16321761 49.0987585,5.20847113 48.8975894,5.29878803 C48.6964204,5.38929507 48.5268148,5.50071761 48.3895331,5.63305563 C48.2518711,5.7655838 48.1457725,5.90647817 48.0718077,6.05516831 C47.9976528,6.20366831 47.9449838,6.34171056 47.91285,6.46910493 C47.8598007,6.66000634 47.8308993,6.87752746 47.8255754,7.12147817 C47.8202514,7.36561901 47.8177796,7.57287254 47.8177796,7.74247817 L47.8177796,10.8788514 C47.8177796,11.2077951 47.7305049,11.4441401 47.5557655,11.5873162 C47.3808359,11.7306824 47.0922021,11.8021754 46.6902444,11.8021754 C46.361681,11.8021754 46.102519,11.7331542 45.9116176,11.5956824 C45.7210965,11.4584007 45.6260261,11.230612 45.6260261,10.9128866 L45.6260261,4.35340775 C45.6260261,4.06743592 45.7079768,3.83489366 45.8720683,3.65464014 C46.0361599,3.4747669 46.3192796,3.38464014 46.7218077,3.38464014 C46.9969415,3.38464014 47.240512,3.44510493 47.4523289,3.56565423 C47.6639556,3.68639366 47.7700542,3.93034437 47.7700542,4.2973162 L47.7700542,4.48612606 C47.9923289,4.16060493 48.3125261,3.87444296 48.7308359,3.62764014 C49.1491458,3.38102746 49.6440824,3.25762606 50.2160261,3.25762606" id="Fill-36"></path>
                    <path d="M61.1587838,7.62529437 C61.1587838,6.84172394 60.9842345,6.22737887 60.6349458,5.78263944 C60.2852768,5.33809014 59.7876782,5.11562535 59.1419599,5.11562535 C58.5276148,5.11562535 58.0433261,5.33561831 57.6885232,5.77484366 C57.3339106,6.21425915 57.1565092,6.83107606 57.1565092,7.62529437 C57.1565092,8.41913239 57.3339106,9.03347746 57.6885232,9.46756901 C58.0433261,9.9018507 58.5276148,10.1186113 59.1419599,10.1186113 C59.7770303,10.1186113 60.272157,9.9018507 60.6267697,9.46756901 C60.9813824,9.03347746 61.1587838,8.41913239 61.1587838,7.62529437 M63.382481,7.56159718 C63.382481,8.22861127 63.2815162,8.83230845 63.0799669,9.37230845 C62.8786077,9.91211831 62.5920655,10.3730197 62.2207204,10.754062 C61.8495655,11.1351042 61.4038754,11.4317239 60.8842204,11.6433507 C60.3643754,11.8551676 59.7859669,11.9610761 59.1499458,11.9610761 C58.4924387,11.9610761 57.9007204,11.8576394 57.3757415,11.6515268 C56.8507627,11.4448437 56.4050725,11.1510761 56.0386711,10.7698437 C55.67265,10.3886113 55.3916218,9.92809014 55.1955866,9.38809014 C54.9991711,8.84809014 54.9014387,8.24990704 54.9014387,7.5933507 C54.9014387,6.93679437 55.0044951,6.34146338 55.2115585,5.80659718 C55.4184317,5.27230141 55.7101077,4.81672394 56.0867768,4.44062535 C56.4630655,4.06490704 56.9112275,3.77361127 57.4312627,3.56711831 C57.9509176,3.36081549 58.5291359,3.25756901 59.1659176,3.25756901 C59.8019387,3.25756901 60.3776852,3.36081549 60.8923965,3.56711831 C61.4067275,3.77361127 61.8495655,4.06243521 62.2207204,4.43282958 C62.5920655,4.80360423 62.8786077,5.25632958 63.0799669,5.79081549 C63.2815162,6.32549155 63.382481,6.91587887 63.382481,7.56159718" id="Fill-38"></path>
                </g>
                <path d="M54.2630218,27.1572275 C54.2630218,29.6528261 53.2503317,31.8622627 51.6177824,33.502988 C49.98105,35.1397204 47.7246486,36.1012627 45.2248669,36.1012627 L36.49455,36.1012627 L36.49455,44.8104739 C36.49455,49.8060444 32.3023246,53.8442556 27.3109373,53.8442556 C24.8153387,53.8442556 22.4136697,52.8271923 20.7771275,51.1862768 C19.1445782,49.5539176 18.131888,47.2762204 18.131888,44.7762486 C18.131888,40.6994387 20.8282754,37.2295585 24.5417261,36.1012627 L18.5507683,36.1012627 L18.5507683,18.157481 L45.2248669,18.157481 C50.2204373,18.157481 54.2630218,22.1660303 54.2630218,27.1572275" id="Fill-41" fill="#211E5E"></path>
                <path d="M36.0756127,8.96981831 L36.0756127,24.1402056 C36.0756127,30.7468394 30.7212465,36.1012056 24.1146127,36.1012056 L8.96970423,36.1012056 C4.01710563,36.1012056 0,32.0842901 0,27.1315014 C0,22.1745296 4.01710563,18.1574239 8.96970423,18.1574239 L18.131831,18.1574239 L18.131831,8.96981831 C18.131831,4.01702958 22.1487465,0.000114084507 27.1059085,0.000114084507 C32.0586972,0.000114084507 36.0756127,4.01702958 36.0756127,8.96981831" id="Fill-43" fill="#FF0D7B"></path>
            </g>
        </g>
    </g>
</svg>