<svg width="754" height="101" viewBox="0 0 754 101" fill="none" xmlns="http://www.w3.org/2000/svg">
<path fill-rule="evenodd" clip-rule="evenodd" d="M24.8708 94.5563C29.5564 94.2357 33.8107 92.0101 36.7701 88.3973C39.6677 84.7844 40.9621 80.1174 40.3456 75.512C38.681 65.3147 39.6056 53.8659 50.1481 50.6415C50.1481 50.6415 23.7608 47.4047 21.4796 91.0236C21.418 91.9546 21.7264 92.8671 22.4046 93.5267C23.0211 94.1926 23.946 94.5317 24.8708 94.47C24.8708 94.5563 24.8708 94.5563 24.8708 94.5563Z" fill="#5081FF"/>
<path fill-rule="evenodd" clip-rule="evenodd" d="M1.19655 63.8165C4.71074 66.8745 9.33434 68.3356 13.9583 67.8548C18.5822 67.3739 22.7747 64.9879 25.6107 61.2765C31.6526 52.9041 40.4071 45.4504 50.0865 50.6291C50.0865 50.6291 33.7491 29.6859 1.25827 58.9029C0.580091 59.5071 0.148193 60.3825 0.148193 61.3135C0.148193 62.2444 0.518439 63.1322 1.25827 63.7426C1.19662 63.8104 1.19655 63.8165 1.19655 63.8165Z" fill="#1D5CFF"/>
<path fill-rule="evenodd" clip-rule="evenodd" d="M6.18994 25.3271C6.4982 29.9695 8.71769 34.2667 12.3552 37.2013C15.931 40.1298 20.6171 41.4245 25.2411 40.7833C35.4137 39.131 46.8805 40.0435 50.0864 50.586C50.0864 50.586 53.3544 24.2112 9.70455 21.9054C8.77976 21.8314 7.85477 22.1643 7.17659 22.8179C6.56007 23.4714 6.19 24.3777 6.25165 25.3086C6.19 25.321 6.18994 25.321 6.18994 25.3271Z" fill="#5081FF"/>
<path fill-rule="evenodd" clip-rule="evenodd" d="M36.8929 1.63417C33.8719 5.14218 32.3929 9.75991 32.8861 14.3838C33.3793 19.0139 35.7218 23.2309 39.4826 26.0299C47.8056 32.0718 55.2654 40.8141 50.0866 50.549C50.0866 50.549 71.0486 34.1865 41.8254 1.7143C41.2089 1.0053 40.3456 0.592234 39.4209 0.586069C38.4961 0.579903 37.6328 0.980651 37.0163 1.68349C36.893 1.628 36.8929 1.63417 36.8929 1.63417Z" fill="#1D5CFF"/>
<path fill-rule="evenodd" clip-rule="evenodd" d="M75.4255 6.62183C75.4255 6.62183 75.4255 6.62799 75.4255 6.70198H75.4872C75.5489 6.69581 75.6107 6.69582 75.6724 6.69582C76.5355 6.70815 77.3369 7.04723 77.8918 7.64525C78.5699 8.3111 78.8784 9.22354 78.8167 10.1483C76.8438 47.639 57.1148 50.5182 51.5661 50.586H51.4434C50.5803 50.5922 50.1482 50.5367 50.1482 50.5367C60.6908 47.3123 61.6153 35.8573 59.9507 25.6662C59.3342 21.0608 60.6294 16.3937 63.527 12.7809C66.4864 9.16806 70.7399 6.93625 75.4255 6.62183Z" fill="#5081FF"/>
<path fill-rule="evenodd" clip-rule="evenodd" d="M99.1006 37.3616C95.5864 34.3036 90.9621 32.8425 86.3381 33.3234C81.7142 33.8043 77.5217 36.184 74.6857 39.8955C68.6438 48.274 59.8893 55.7278 50.2099 50.549C50.2099 50.549 66.5481 71.4922 99.0389 42.2753C99.7171 41.6711 100.148 40.7894 100.148 39.8585C100.148 38.9337 99.7787 38.0459 99.0389 37.4356C99.1005 37.3678 99.1006 37.3616 99.1006 37.3616Z" fill="#1D5CFF"/>
<path fill-rule="evenodd" clip-rule="evenodd" d="M94.1064 75.8449C93.7982 71.2087 91.5787 66.9053 87.9412 63.9769C84.3653 61.0484 79.68 59.7475 75.056 60.3949C64.8834 62.0471 53.4159 61.1285 50.2099 50.586C50.2099 50.586 46.9427 76.967 90.5926 79.2666C91.5174 79.3406 92.4416 79.0138 93.1198 78.3603C93.7363 77.7068 94.1064 76.7943 94.0447 75.8695C94.1064 75.8572 94.1064 75.8511 94.1064 75.8449Z" fill="#5081FF"/>
<path fill-rule="evenodd" clip-rule="evenodd" d="M63.4036 99.5378C66.4246 96.036 67.9044 91.4182 67.4112 86.7882C66.918 82.1642 64.5747 77.9473 60.8139 75.1482C52.4909 69.1063 45.0311 60.3579 50.2099 50.6292C50.2099 50.6292 29.2479 66.9855 58.4711 99.4639C59.0876 100.173 59.9509 100.58 60.8757 100.586C61.8004 100.592 62.6637 100.191 63.2802 99.4947C63.3418 99.544 63.4036 99.544 63.4036 99.5378Z" fill="#1D5CFF"/>
<path d="M137.999 66.2121C134.091 66.2121 131.028 65.2031 128.808 63.1852C126.607 61.1489 125.387 58.8558 125.148 56.3058H130.679C130.973 57.7367 131.817 58.9566 133.211 59.9656C134.605 60.9746 136.164 61.4608 137.889 61.4241C139.613 61.3874 140.971 60.9563 141.961 60.1307C142.97 59.3052 143.475 58.232 143.475 56.9112C143.475 55.5536 142.851 54.5263 141.604 53.8292C140.375 53.1137 138.54 52.49 136.1 51.958C134.706 51.6645 133.486 51.3434 132.44 50.9949C131.413 50.628 130.377 50.1327 129.331 49.5089C128.285 48.8852 127.478 48.0688 126.909 47.0599C126.341 46.0509 126.056 44.8676 126.056 43.5101C126.056 40.7216 127.166 38.4927 129.386 36.8233C131.606 35.1539 134.385 34.3192 137.724 34.3192C140.879 34.3192 143.539 35.1081 145.704 36.6857C147.869 38.2634 149.098 40.5199 149.391 43.4551H143.915C143.658 42.0608 142.952 41.0243 141.796 40.3456C140.659 39.6668 139.457 39.2907 138.192 39.2174C136.614 39.144 135.293 39.4191 134.229 40.0429C133.183 40.6666 132.66 41.5747 132.66 42.7671C132.66 43.3358 132.807 43.8495 133.101 44.3081C133.413 44.7484 133.725 45.1061 134.036 45.3813C134.348 45.6381 134.908 45.9133 135.715 46.2068C136.522 46.482 137.146 46.6746 137.586 46.7847C138.026 46.8948 138.788 47.0782 139.87 47.335C141.228 47.6286 142.411 47.9771 143.42 48.3807C144.429 48.7843 145.465 49.3255 146.529 50.0043C147.612 50.6647 148.446 51.5544 149.033 52.6735C149.621 53.7742 149.914 55.0583 149.914 56.5259C149.914 59.3878 148.813 61.7176 146.612 63.5154C144.411 65.3132 141.54 66.2121 137.999 66.2121Z" fill="#000920"/>
<path d="M155.252 34.787H161.609V65.7718H155.252V34.787Z" fill="#000920"/>
<path d="M204.812 34.4843C208.114 34.4843 210.71 35.4566 212.599 37.4012C214.507 39.3274 215.461 42.0058 215.461 45.4363V65.7718H208.967V46.1518C208.967 44.2439 208.444 42.7671 207.398 41.7215C206.371 40.6574 204.903 40.1254 202.995 40.1254C200.959 40.1254 199.189 40.7308 197.685 41.9416C196.199 43.134 195.456 44.6934 195.456 46.6196V65.7718H188.961V46.1518C188.961 44.2439 188.439 42.7671 187.393 41.7215C186.366 40.6574 184.898 40.1254 182.99 40.1254C180.954 40.1254 179.184 40.7308 177.679 41.9416C176.175 43.134 175.423 44.6934 175.423 46.6196V65.7718H168.956V34.787H174.762L175.038 38.8871C176.083 37.5296 177.477 36.4564 179.22 35.6676C180.981 34.8787 182.816 34.4843 184.724 34.4843C188.705 34.4843 191.75 36.3463 193.86 40.0704C194.942 38.4193 196.492 37.0802 198.51 36.0528C200.528 35.0072 202.629 34.4843 204.812 34.4843Z" fill="#000920"/>
<path d="M227.486 38.8321C229.816 35.9336 233.063 34.4843 237.227 34.4843C241.41 34.4843 244.822 35.9611 247.464 38.9147C250.106 41.8682 251.426 45.6014 251.426 50.1143C251.426 54.6089 250.087 58.3788 247.409 61.4241C244.749 64.4693 241.337 65.992 237.172 65.992C233.191 65.992 229.963 64.4877 227.486 61.4791V74.6702L221.102 74.6151V34.787H226.963L227.486 38.8321ZM236.099 60.3509C238.759 60.3509 240.915 59.3786 242.566 57.434C244.235 55.4711 245.07 53.0312 245.07 50.1143C245.07 47.1791 244.244 44.7392 242.593 42.7946C240.942 40.8317 238.778 39.8503 236.099 39.8503C234.026 39.8503 232.21 40.5199 230.651 41.859C229.11 43.1799 228.055 44.9135 227.486 47.0599V53.1413C228.018 55.2876 229.064 57.0304 230.623 58.3696C232.201 59.6905 234.026 60.3509 236.099 60.3509Z" fill="#000920"/>
<path d="M256.93 65.7718L256.985 25.586H262.956V65.7718H256.93Z" fill="#000920"/>
<path d="M297.986 50.1694C297.986 51.0683 297.95 51.7562 297.876 52.2332H275.449C275.596 54.9299 276.495 57.0671 278.146 58.6448C279.797 60.2041 281.714 61.0021 283.897 61.0388C285.805 61.0388 287.465 60.6169 288.878 59.773C290.29 58.9291 291.299 57.755 291.905 56.2507H297.188C296.766 58.8374 295.436 61.1305 293.198 63.1302C290.978 65.1114 287.896 66.0837 283.952 66.047C279.549 66.047 276 64.5611 273.303 61.5892C270.625 58.5989 269.285 54.829 269.285 50.2794C269.285 45.6565 270.588 41.8774 273.193 38.9422C275.816 36.007 279.403 34.5394 283.952 34.5394C288.282 34.5394 291.703 35.9611 294.216 38.8046C296.73 41.6481 297.986 45.4363 297.986 50.1694ZM283.897 39.6301C281.531 39.6301 279.641 40.3456 278.229 41.7765C276.816 43.1891 275.926 45.1428 275.559 47.6377H291.96C291.666 45.1612 290.832 43.2074 289.456 41.7765C288.08 40.3456 286.227 39.6301 283.897 39.6301Z" fill="#000920"/>
<path d="M339.234 61.5892C336.353 64.6344 332.675 66.1571 328.199 66.1571C323.741 66.1571 320.063 64.6344 317.165 61.5892C314.266 58.5255 312.817 54.7373 312.817 50.2244C312.817 45.7115 314.266 41.9233 317.165 38.8596C320.063 35.796 323.741 34.2642 328.199 34.2642C332.675 34.2642 336.353 35.796 339.234 38.8596C342.132 41.9233 343.581 45.7115 343.581 50.2244C343.581 54.7373 342.132 58.5255 339.234 61.5892ZM321.705 57.489C323.374 59.4336 325.539 60.4059 328.199 60.4059C330.877 60.4059 333.051 59.4336 334.721 57.489C336.39 55.5261 337.225 53.1046 337.225 50.2244C337.225 47.2892 336.39 44.8493 334.721 42.9047C333.051 40.9418 330.877 39.9603 328.199 39.9603C325.539 39.9603 323.374 40.9418 321.705 42.9047C320.036 44.8493 319.201 47.2892 319.201 50.2244C319.201 53.1229 320.036 55.5445 321.705 57.489Z" fill="#000920"/>
<path d="M364.495 34.3743C367.944 34.3743 370.677 35.3832 372.695 37.4012C374.731 39.4008 375.749 42.1709 375.749 45.7115V65.7718H369.283V46.4545C369.283 44.4549 368.696 42.8955 367.522 41.7765C366.366 40.6391 364.752 40.0704 362.679 40.0704C360.459 40.0704 358.542 40.7033 356.927 41.9691C355.313 43.2166 354.506 44.8218 354.506 46.7847V65.7718H348.039V34.787H353.735L354.231 39.1073C355.35 37.6397 356.836 36.4839 358.689 35.6401C360.56 34.7962 362.495 34.3743 364.495 34.3743Z" fill="#000920"/>
<path d="M383.069 65.7718L383.124 25.586H389.096L389.096 65.7718H383.069Z" fill="#000920"/>
<path d="M397.681 34.787H404.038V65.7718H397.681V34.787Z" fill="#000920"/>
<path d="M427.51 34.3743C430.959 34.3743 433.692 35.3832 435.71 37.4012C437.747 39.4008 438.765 42.1709 438.765 45.7115V65.7718H432.298V46.4545C432.298 44.4549 431.711 42.8955 430.537 41.7765C429.381 40.6391 427.767 40.0704 425.694 40.0704C423.474 40.0704 421.557 40.7033 419.943 41.9691C418.328 43.2166 417.521 44.8218 417.521 46.7847V65.7718H411.055V34.787H416.751L417.246 39.1073C418.365 37.6397 419.851 36.4839 421.704 35.6401C423.575 34.7962 425.51 34.3743 427.51 34.3743Z" fill="#000920"/>
<path d="M471.786 50.1694C471.786 51.0683 471.749 51.7562 471.676 52.2332H449.249C449.396 54.9299 450.295 57.0671 451.946 58.6448C453.597 60.2041 455.514 61.0021 457.697 61.0388C459.605 61.0388 461.265 60.6169 462.678 59.773C464.09 58.9291 465.099 57.755 465.704 56.2507H470.988C470.566 58.8374 469.236 61.1305 466.998 63.1302C464.778 65.1114 461.696 66.0837 457.752 66.047C453.349 66.047 449.799 64.5611 447.103 61.5892C444.424 58.5989 443.085 54.829 443.085 50.2794C443.085 45.6565 444.388 41.8774 446.993 38.9422C449.616 36.007 453.202 34.5394 457.752 34.5394C462.081 34.5394 465.503 35.9611 468.016 38.8046C470.529 41.6481 471.786 45.4363 471.786 50.1694ZM457.697 39.6301C455.33 39.6301 453.441 40.3456 452.028 41.7765C450.616 43.1891 449.726 45.1428 449.359 47.6377H465.76C465.466 45.1612 464.631 43.2074 463.255 41.7765C461.88 40.3456 460.027 39.6301 457.697 39.6301Z" fill="#000920"/>
<path d="M493.001 38.8321C495.33 35.9336 498.577 34.4843 502.742 34.4843C506.924 34.4843 510.337 35.9611 512.978 38.9147C515.62 41.8682 516.941 45.6015 516.941 50.1143C516.941 54.6089 515.602 58.3788 512.923 61.4241C510.263 64.4694 506.851 65.992 502.687 65.992C498.706 65.992 495.477 64.4877 493.001 61.4791V74.6151L486.616 74.5601V34.787H492.478L493.001 38.8321ZM501.614 60.3509C504.274 60.3509 506.429 59.3786 508.08 57.434C509.75 55.4711 510.584 53.0312 510.584 50.1143C510.584 47.1791 509.759 44.7392 508.108 42.7947C506.457 40.8317 504.292 39.8503 501.614 39.8503C499.541 39.8503 497.724 40.5199 496.165 41.8591C494.624 43.1799 493.569 44.9135 493.001 47.0599V53.1413C493.533 55.2877 494.578 57.0304 496.138 58.3696C497.715 59.6905 499.541 60.3509 501.614 60.3509Z" fill="#000920"/>
<path d="M537.992 34.4843C541.477 34.4843 544.247 35.4933 546.302 37.5113C548.357 39.5109 549.384 42.2627 549.384 45.7666V65.7719H542.835V46.5095C542.835 44.5099 542.248 42.9598 541.074 41.8591C539.918 40.74 538.294 40.1805 536.203 40.1805C533.983 40.1805 532.039 40.8042 530.369 42.0517C528.718 43.2808 527.893 44.8768 527.893 46.8397V65.7719H521.371V25.586H527.893V38.8872C529.012 37.5296 530.489 36.4564 532.323 35.6676C534.158 34.8788 536.047 34.4843 537.992 34.4843Z" fill="#000920"/>
<path d="M563.446 66.1021C560.437 66.1021 557.97 65.2765 556.043 63.6255C554.135 61.9744 553.181 59.7638 553.181 56.9937C553.181 54.2053 554.291 51.9397 556.511 50.1969C558.731 48.4358 561.868 47.4084 565.922 47.1149L573.022 46.5646V45.7115C573.022 41.5839 570.848 39.5201 566.5 39.5201C564.555 39.5201 562.95 40.0154 561.684 41.006C560.419 41.9966 559.694 43.4184 559.511 45.2712H553.979C554.236 42.1893 555.42 39.6118 557.529 37.5388C559.639 35.4658 562.684 34.4293 566.665 34.4293C570.499 34.4293 573.489 35.4108 575.636 37.3737C577.801 39.3183 578.883 42.1342 578.883 45.8216C578.883 47.546 578.892 49.7474 578.91 52.4258C578.929 55.0859 578.938 56.5443 578.938 56.8011C578.938 59.5896 579.727 60.9471 581.304 60.8737V65.7719C580.479 65.7719 579.846 65.7535 579.406 65.7168C576.214 65.3866 574.278 64.0933 573.6 61.8368C572.737 63.0843 571.361 64.1116 569.472 64.9188C567.601 65.7077 565.592 66.1021 563.446 66.1021ZM564.684 61.1489C566.628 61.1489 568.399 60.6261 569.995 59.5804C571.609 58.5164 572.618 57.2597 573.022 55.8105V51.0499L566.885 51.6278C561.895 52.0497 559.4 53.7558 559.4 56.7461C559.4 58.1036 559.923 59.1768 560.969 59.9656C562.015 60.7545 563.253 61.1489 564.684 61.1489Z" fill="#000920"/>
<path d="M603.786 34.4293L603.731 40.0704C600.191 39.9237 597.411 40.6666 595.393 42.2993C593.394 43.9321 592.394 46.5371 592.394 50.1143V65.7719H585.927V34.787H591.844L592.394 39.9603C593.073 38.346 594.32 37.0068 596.136 35.9428C597.971 34.8604 600.521 34.3559 603.786 34.4293Z" fill="#000920"/>
<path d="M644.182 34.4843C647.484 34.4843 650.08 35.4566 651.97 37.4012C653.878 39.3274 654.831 42.0058 654.831 45.4364V65.7719H648.337V46.1518C648.337 44.2439 647.814 42.7671 646.769 41.7215C645.741 40.6575 644.274 40.1255 642.366 40.1255C640.33 40.1255 638.559 40.7308 637.055 41.9416C635.569 43.134 634.826 44.6934 634.826 46.6196V65.7719H628.332V46.1518C628.332 44.2439 627.809 42.7671 626.764 41.7215C625.736 40.6575 624.269 40.1255 622.361 40.1255C620.324 40.1255 618.554 40.7308 617.05 41.9416C615.546 43.134 614.793 44.6934 614.793 46.6196V65.7719H608.327V34.787H614.133L614.408 38.8872C615.454 37.5296 616.848 36.4564 618.591 35.6676C620.352 34.8788 622.186 34.4843 624.094 34.4843C628.075 34.4843 631.121 36.3464 633.23 40.0704C634.313 38.4194 635.863 37.0802 637.881 36.0528C639.899 35.0072 641.999 34.4843 644.182 34.4843Z" fill="#000920"/>
<path d="M669.553 66.1021C666.545 66.1021 664.077 65.2765 662.151 63.6255C660.243 61.9744 659.289 59.7638 659.289 56.9937C659.289 54.2053 660.399 51.9397 662.619 50.1969C664.839 48.4358 667.976 47.4084 672.03 47.1149L679.13 46.5646V45.7115C679.13 41.5839 676.956 39.5201 672.608 39.5201C670.663 39.5201 669.058 40.0154 667.792 41.006C666.526 41.9966 665.802 43.4184 665.618 45.2712H660.087C660.344 42.1893 661.527 39.6118 663.637 37.5388C665.747 35.4658 668.792 34.4293 672.773 34.4293C676.607 34.4293 679.597 35.4108 681.744 37.3737C683.908 39.3183 684.991 42.1342 684.991 45.8216C684.991 47.546 685 49.7474 685.018 52.4258C685.037 55.0859 685.046 56.5443 685.046 56.8011C685.046 59.5896 685.835 60.9471 687.412 60.8737V65.7719C686.587 65.7719 685.954 65.7535 685.514 65.7168C682.322 65.3866 680.386 64.0933 679.707 61.8368C678.845 63.0843 677.469 64.1116 675.58 64.9188C673.709 65.7077 671.7 66.1021 669.553 66.1021ZM670.792 61.1489C672.736 61.1489 674.507 60.6261 676.103 59.5804C677.717 58.5164 678.726 57.2597 679.13 55.8105V51.0499L672.993 51.6278C668.003 52.0497 665.508 53.7558 665.508 56.7461C665.508 58.1036 666.031 59.1768 667.077 59.9656C668.122 60.7545 669.361 61.1489 670.792 61.1489Z" fill="#000920"/>
<path d="M704.941 66.1021C700.575 66.1021 697.034 64.6161 694.319 61.6442C691.623 58.654 690.274 54.829 690.274 50.1694C690.274 45.5464 691.613 41.7765 694.292 38.8596C696.988 35.9428 700.538 34.4843 704.941 34.4843C709.307 34.4843 712.692 35.6126 715.095 37.869C717.517 40.1255 718.902 42.7763 719.25 45.8216H713.499C713.242 44.1338 712.352 42.7121 710.83 41.5564C709.307 40.3823 707.509 39.7952 705.436 39.7952C702.685 39.7952 700.52 40.74 698.942 42.6296C697.383 44.5008 696.603 47.014 696.603 50.1694C696.603 53.3247 697.401 55.8655 698.997 57.7918C700.593 59.6996 702.758 60.6536 705.491 60.6536C707.491 60.6536 709.215 60.0574 710.665 58.8649C712.132 57.6542 713.077 56.1957 713.499 54.4896H719.195C718.975 55.9206 718.553 57.2873 717.929 58.5898C717.306 59.8923 716.443 61.1306 715.343 62.3046C714.26 63.4604 712.82 64.3868 711.022 65.0839C709.225 65.7627 707.197 66.1021 704.941 66.1021Z" fill="#000920"/>
<path d="M753.262 34.787C746.062 50.4913 743.949 58.8558 736.749 74.5601H729.349L735.733 63.7356H734.192L722.195 34.787H728.634L738.155 57.4891L746.988 34.787H753.262Z" fill="#000920"/>
</svg>
