<svg width="260" height="36" viewBox="0 0 260 36" fill="none" xmlns="http://www.w3.org/2000/svg">
<path fill-rule="evenodd" clip-rule="evenodd" d="M13.9003 9.13685C13.859 8.75056 13.8176 8.36012 13.8176 7.96763C13.8176 5.53416 14.7883 3.19985 16.5232 1.48114C17.3907 0.605258 17.9898 0 17.9898 0C17.9898 0 18.1342 0.132198 18.3614 0.363563C20.716 2.71853 21.7487 5.89361 21.4595 8.96952C21.8313 8.38904 22.265 7.84782 22.7401 7.3541C24.475 5.63332 26.8089 4.66654 29.2254 4.66654H31.3322V5.18092C31.3322 8.77328 29.5558 11.9566 26.8502 13.9088C27.2426 13.8592 27.6352 13.8344 28.0276 13.8344C30.4648 13.8344 32.7987 14.7991 34.513 16.5199C35.3804 17.3958 36 18.001 36 18.001C36 18.001 35.8553 18.1332 35.6281 18.3646C33.2736 20.7196 30.093 21.7525 27.0156 21.4674C27.6145 21.831 28.1514 22.2606 28.6471 22.7544C30.3613 24.4731 31.3322 26.8074 31.3322 29.2408V31.3335H30.8158C27.222 31.3335 24.0414 29.5714 22.0792 26.8652C22.1412 27.2494 22.1619 27.6399 22.1619 28.0344C22.1619 30.4679 21.1911 32.8001 19.4768 34.5209C18.5887 35.3968 17.9898 36 17.9898 36C17.9898 36 17.8658 35.8678 17.6386 35.6385C15.284 33.2835 14.2513 30.1064 14.5405 27.0305C14.1687 27.613 13.735 28.1542 13.2393 28.6459C11.525 30.3667 9.19106 31.3335 6.75389 31.3335H4.66782V30.8211C4.66782 27.2267 6.42348 24.0455 9.12915 22.0933C8.73672 22.1429 8.36508 22.1677 7.97266 22.1677C5.53549 22.1677 3.20154 21.2009 1.4666 19.4801C0.599137 18.6042 0 18.001 0 18.001C0 18.001 0.124015 17.8688 0.351208 17.6375C2.72642 15.2825 5.88657 14.2475 8.96401 14.5347C8.3857 14.1711 7.84863 13.7394 7.35294 13.2477C5.63866 11.5269 4.66782 9.19469 4.66782 6.76122V4.66654H5.18417C8.77796 4.66654 11.9589 6.43071 13.9003 9.13685ZM20.0759 13.3365C19.6215 14.136 19.043 14.8879 18.3614 15.5717C18.1342 15.8031 17.9898 15.9353 17.9898 15.9353C17.9898 15.9353 17.3907 15.33 16.5232 14.4541C16.2547 14.1918 16.0069 13.9149 15.7797 13.6257C15.8829 14.2083 15.9244 14.8094 15.9244 15.4209V15.9353H13.8383C13.6731 15.9353 13.5079 15.9311 13.322 15.9208C14.1275 16.3815 14.8916 16.9537 15.5732 17.6375C15.8004 17.8688 15.9244 18.001 15.9244 18.001C15.9244 18.001 15.3253 18.6042 14.4578 19.4801C14.1893 19.7445 13.9003 19.9883 13.6112 20.2155C14.2101 20.1184 14.8091 20.0668 15.408 20.0668H15.9244V22.1594C15.9244 22.3288 15.9244 22.4961 15.9244 22.6655C16.3788 21.8661 16.957 21.1121 17.6386 20.4304C17.8658 20.199 17.9898 20.0668 17.9898 20.0668C17.9898 20.0668 18.5887 20.67 19.4768 21.5459C19.7453 21.8103 19.9725 22.0871 20.2203 22.3763C20.1171 21.7917 20.0552 21.1926 20.0552 20.5791V20.0668H22.1619C22.3272 20.0668 22.4924 20.0709 22.6576 20.0812C21.8521 19.6185 21.1084 19.0463 20.4268 18.3646C20.1996 18.1332 20.0552 18.001 20.0552 18.001C20.0552 18.001 20.6541 17.3958 21.5422 16.5199C21.8107 16.2575 22.0793 16.0117 22.3684 15.7845C21.7901 15.8836 21.1912 15.9353 20.5715 15.9353H20.0552V13.8427C20.0552 13.6733 20.0552 13.5039 20.0759 13.3365Z" fill="#5197D5"/>
<path d="M51.1158 18.3736C49.5602 18.3736 48.3406 17.9719 47.457 17.1686C46.5806 16.358 46.0949 15.4451 46 14.43H48.2019C48.3187 14.9996 48.6546 15.4853 49.2097 15.8869C49.7647 16.2886 50.3855 16.4821 51.0719 16.4675C51.7584 16.4529 52.2988 16.2813 52.6932 15.9527C53.0949 15.624 53.2957 15.1968 53.2957 14.671C53.2957 14.1306 53.0474 13.7216 52.5508 13.4441C52.0615 13.1593 51.3312 12.911 50.3599 12.6992C49.8049 12.5823 49.3192 12.4545 48.9029 12.3158C48.494 12.1697 48.0814 11.9725 47.6651 11.7242C47.2488 11.4759 46.9275 11.1509 46.7011 10.7493C46.4747 10.3476 46.3615 9.87656 46.3615 9.33614C46.3615 8.22608 46.8033 7.33877 47.687 6.67419C48.5707 6.00962 49.6771 5.67733 51.0062 5.67733C52.2623 5.67733 53.3213 5.99136 54.183 6.61942C55.0448 7.24748 55.5341 8.14575 55.6509 9.31423H53.471C53.3687 8.7592 53.0876 8.34658 52.6275 8.07637C52.1747 7.80616 51.6963 7.65645 51.1924 7.62723C50.5644 7.59802 50.0386 7.70757 49.615 7.95587C49.1987 8.20417 48.9906 8.56567 48.9906 9.04037C48.9906 9.26676 49.049 9.47124 49.1659 9.65382C49.29 9.82909 49.4142 9.9715 49.5383 10.081C49.6625 10.1833 49.8852 10.2928 50.2065 10.4097C50.5279 10.5192 50.7762 10.5959 50.9514 10.6397C51.1267 10.6835 51.4298 10.7566 51.8607 10.8588C52.4011 10.9757 52.8721 11.1144 53.2738 11.2751C53.6755 11.4358 54.0881 11.6512 54.5117 11.9214C54.9425 12.1843 55.2748 12.5385 55.5085 12.984C55.7422 13.4222 55.8591 13.9334 55.8591 14.5176C55.8591 15.6569 55.4209 16.5844 54.5445 17.3001C53.6682 18.0158 52.5252 18.3736 51.1158 18.3736Z" fill="#427FB4"/>
<path d="M57.9842 5.86356H60.5147V18.1983H57.9842V5.86356Z" fill="#427FB4"/>
<path d="M77.7133 5.74306C79.0279 5.74306 80.0612 6.13012 80.8134 6.90424C81.573 7.67105 81.9527 8.73729 81.9527 10.103V18.1983H79.3675V10.3878C79.3675 9.62826 79.1593 9.04037 78.743 8.6241C78.3341 8.20052 77.7498 7.98873 76.9903 7.98873C76.1797 7.98873 75.4749 8.22973 74.8761 8.71173C74.2846 9.18643 73.9888 9.80718 73.9888 10.574V18.1983H71.4035V10.3878C71.4035 9.62826 71.1954 9.04037 70.7791 8.6241C70.3701 8.20052 69.7859 7.98873 69.0264 7.98873C68.2158 7.98873 67.511 8.22973 66.9122 8.71173C66.3133 9.18643 66.0139 9.80718 66.0139 10.574V18.1983H63.4396V5.86356H65.751L65.8605 7.49578C66.2768 6.95536 66.8318 6.52813 67.5256 6.2141C68.2267 5.90007 68.957 5.74306 69.7165 5.74306C71.3013 5.74306 72.5136 6.48431 73.3534 7.96682C73.7843 7.30955 74.4014 6.77643 75.2047 6.36747C76.0081 5.95119 76.8443 5.74306 77.7133 5.74306Z" fill="#427FB4"/>
<path d="M86.7398 7.47387C87.6673 6.31999 88.96 5.74306 90.6177 5.74306C92.2828 5.74306 93.6412 6.33095 94.6928 7.50673C95.7444 8.68252 96.2703 10.1687 96.2703 11.9652C96.2703 13.7545 95.7371 15.2552 94.6709 16.4675C93.612 17.6798 92.2536 18.286 90.5958 18.286C89.0111 18.286 87.7257 17.6871 86.7398 16.4894V21.7407L84.1984 21.7188V5.86356H86.5317L86.7398 7.47387ZM90.1686 16.0403C91.2275 16.0403 92.0856 15.6532 92.7429 14.8791C93.4075 14.0977 93.7398 13.1264 93.7398 11.9652C93.7398 10.7967 93.4111 9.82544 92.7539 9.05132C92.0966 8.2699 91.2348 7.87919 90.1686 7.87919C89.3434 7.87919 88.6204 8.14575 87.9996 8.67887C87.3862 9.20468 86.9662 9.89482 86.7398 10.7493V13.1702C86.9516 14.0247 87.3679 14.7185 87.9886 15.2516C88.6167 15.7774 89.3434 16.0403 90.1686 16.0403Z" fill="#427FB4"/>
<path d="M98.4612 18.1983L98.4831 2.20071H100.86V18.1983H98.4612Z" fill="#427FB4"/>
<path d="M114.805 11.9871C114.805 12.345 114.791 12.6188 114.761 12.8087H105.834C105.892 13.8823 106.25 14.7331 106.907 15.3611C107.564 15.9819 108.328 16.2996 109.197 16.3142C109.956 16.3142 110.617 16.1462 111.179 15.8103C111.742 15.4743 112.143 15.0069 112.384 14.4081H114.488C114.32 15.4378 113.79 16.3507 112.899 17.1467C112.016 17.9354 110.789 18.3225 109.218 18.3079C107.466 18.3079 106.053 17.7163 104.979 16.5333C103.913 15.3429 103.38 13.8421 103.38 12.031C103.38 10.1906 103.898 8.68617 104.935 7.51769C105.98 6.34921 107.407 5.76497 109.218 5.76497C110.942 5.76497 112.304 6.33095 113.305 7.46292C114.305 8.59488 114.805 10.103 114.805 11.9871ZM109.197 7.79155C108.255 7.79155 107.502 8.07637 106.94 8.646C106.378 9.20834 106.023 9.98611 105.877 10.9793H112.406C112.289 9.99341 111.957 9.21564 111.409 8.646C110.862 8.07637 110.124 7.79155 109.197 7.79155Z" fill="#427FB4"/>
<path d="M131.226 16.5333C130.079 17.7456 128.615 18.3517 126.833 18.3517C125.058 18.3517 123.594 17.7456 122.44 16.5333C121.286 15.3137 120.709 13.8056 120.709 12.009C120.709 10.2125 121.286 8.70443 122.44 7.48483C123.594 6.26522 125.058 5.65542 126.833 5.65542C128.615 5.65542 130.079 6.26522 131.226 7.48483C132.379 8.70443 132.956 10.2125 132.956 12.009C132.956 13.8056 132.379 15.3137 131.226 16.5333ZM124.248 14.901C124.912 15.6752 125.774 16.0622 126.833 16.0622C127.899 16.0622 128.764 15.6752 129.429 14.901C130.094 14.1196 130.426 13.1556 130.426 12.009C130.426 10.8406 130.094 9.86926 129.429 9.09514C128.764 8.31372 127.899 7.92301 126.833 7.92301C125.774 7.92301 124.912 8.31372 124.248 9.09514C123.583 9.86926 123.251 10.8406 123.251 12.009C123.251 13.1629 123.583 14.1269 124.248 14.901Z" fill="#427FB4"/>
<path d="M141.282 5.69924C142.655 5.69924 143.743 6.10091 144.546 6.90424C145.357 7.70026 145.762 8.80302 145.762 10.2125V18.1983H143.188V10.5083C143.188 9.71224 142.954 9.09149 142.487 8.646C142.027 8.19322 141.384 7.96682 140.559 7.96682C139.675 7.96682 138.912 8.21878 138.269 8.72269C137.627 9.21929 137.305 9.8583 137.305 10.6397V18.1983H134.731V5.86356H136.999L137.196 7.58342C137.641 6.99918 138.233 6.53909 138.97 6.20315C139.715 5.86721 140.486 5.69924 141.282 5.69924Z" fill="#427FB4"/>
<path d="M148.676 18.1983L148.698 2.20071H151.075L151.075 18.1983H148.676Z" fill="#427FB4"/>
<path d="M154.493 5.86356H157.023V18.1983H154.493V5.86356Z" fill="#427FB4"/>
<path d="M166.368 5.69924C167.741 5.69924 168.829 6.10091 169.632 6.90424C170.443 7.70026 170.848 8.80302 170.848 10.2125V18.1983H168.274V10.5083C168.274 9.71224 168.04 9.09149 167.573 8.646C167.113 8.19322 166.47 7.96682 165.645 7.96682C164.761 7.96682 163.998 8.21878 163.355 8.72269C162.712 9.21929 162.391 9.8583 162.391 10.6397V18.1983H159.817V5.86356H162.084L162.282 7.58342C162.727 6.99918 163.319 6.53909 164.056 6.20315C164.801 5.86721 165.572 5.69924 166.368 5.69924Z" fill="#427FB4"/>
<path d="M183.993 11.9871C183.993 12.345 183.979 12.6188 183.95 12.8087H175.022C175.08 13.8823 175.438 14.7331 176.095 15.3611C176.753 15.9819 177.516 16.2996 178.385 16.3142C179.144 16.3142 179.805 16.1462 180.367 15.8103C180.93 15.4743 181.331 15.0069 181.572 14.4081H183.676C183.508 15.4378 182.978 16.3507 182.087 17.1467C181.204 17.9354 179.977 18.3225 178.407 18.3079C176.654 18.3079 175.241 17.7163 174.167 16.5333C173.101 15.3429 172.568 13.8421 172.568 12.031C172.568 10.1906 173.086 8.68617 174.123 7.51769C175.168 6.34921 176.595 5.76497 178.407 5.76497C180.13 5.76497 181.492 6.33095 182.493 7.46292C183.493 8.59488 183.993 10.103 183.993 11.9871ZM178.385 7.79155C177.443 7.79155 176.69 8.07637 176.128 8.646C175.566 9.20834 175.212 9.98611 175.065 10.9793H181.594C181.478 9.99341 181.145 9.21564 180.598 8.646C180.05 8.07637 179.312 7.79155 178.385 7.79155Z" fill="#427FB4"/>
<path d="M201.975 2.20071V18.2286L199.75 18.2505L199.531 16.5405C198.588 17.7536 197.262 18.3601 195.552 18.3601C193.878 18.3601 192.515 17.7755 191.463 16.6063C190.418 15.4297 189.895 13.9425 189.895 12.1448C189.895 10.3471 190.421 8.838 191.474 7.61759C192.533 6.39718 193.9 5.78697 195.574 5.78697C197.159 5.78697 198.449 6.40083 199.443 7.62855V2.20071H201.975ZM196.001 16.2336C196.827 16.2336 197.55 15.9705 198.171 15.4443C198.793 14.9181 199.216 14.2312 199.443 13.3835V10.928C199.216 10.073 198.793 9.38244 198.171 8.85627C197.55 8.3228 196.827 8.05606 196.001 8.05606C194.941 8.05606 194.083 8.45068 193.425 9.23993C192.767 10.0219 192.438 10.9902 192.438 12.1448C192.438 13.2994 192.767 14.2714 193.425 15.0606C194.083 15.8426 194.941 16.2336 196.001 16.2336Z" fill="#427FB4"/>
<path d="M214.143 16.5843C212.995 17.7974 211.53 18.404 209.747 18.404C207.971 18.404 206.506 17.7974 205.351 16.5843C204.197 15.3639 203.619 13.8548 203.619 12.0571C203.619 10.2594 204.197 8.75031 205.351 7.52989C206.506 6.30948 207.971 5.69928 209.747 5.69928C211.53 5.69928 212.995 6.30948 214.143 7.52989C215.297 8.75031 215.875 10.2594 215.875 12.0571C215.875 13.8548 215.297 15.3639 214.143 16.5843ZM207.16 14.951C207.825 15.7257 208.687 16.113 209.747 16.113C210.814 16.113 211.68 15.7257 212.345 14.951C213.01 14.1691 213.343 13.2044 213.343 12.0571C213.343 10.8879 213.01 9.91591 212.345 9.14128C211.68 8.35934 210.814 7.96837 209.747 7.96837C208.687 7.96837 207.825 8.35934 207.16 9.14128C206.495 9.91591 206.163 10.8879 206.163 12.0571C206.163 13.2118 206.495 14.1764 207.16 14.951Z" fill="#427FB4"/>
<path d="M222.792 18.3821C221.052 18.3821 219.642 17.7901 218.56 16.6063C217.486 15.4151 216.949 13.8914 216.949 12.0352C216.949 10.1936 217.482 8.69184 218.549 7.52989C219.624 6.36795 221.038 5.78697 222.792 5.78697C224.531 5.78697 225.879 6.2364 226.837 7.13527C227.801 8.03414 228.353 9.09012 228.492 10.3032H226.201C226.098 9.6309 225.744 9.06454 225.137 8.60415C224.531 8.13645 223.815 7.9026 222.989 7.9026C221.893 7.9026 221.03 8.27895 220.402 9.03166C219.781 9.77706 219.47 10.7782 219.47 12.0352C219.47 13.2921 219.788 14.3043 220.424 15.0716C221.06 15.8316 221.922 16.2116 223.011 16.2116C223.807 16.2116 224.494 15.9741 225.072 15.4991C225.656 15.0168 226.033 14.4358 226.201 13.7562H228.47C228.382 14.3262 228.214 14.8706 227.966 15.3895C227.717 15.9084 227.374 16.4016 226.935 16.8693C226.504 17.3297 225.93 17.6988 225.214 17.9765C224.498 18.2469 223.69 18.3821 222.792 18.3821Z" fill="#427FB4"/>
<path d="M235.617 18.2724C234.272 18.2724 233.238 18.0276 232.515 17.538C231.799 17.0411 231.44 16.0655 231.44 14.6112L231.462 7.88067H229.467V5.8637H231.462V2.20068H233.896V5.8637H236.943V7.9026L233.841 7.88067V14.392C233.841 15.0058 233.973 15.4553 234.236 15.7403C234.499 16.0253 234.959 16.1678 235.617 16.1678H237.053V18.2724H235.617Z" fill="#427FB4"/>
<path d="M248.892 16.5843C247.744 17.7974 246.279 18.404 244.496 18.404C242.72 18.404 241.255 17.7974 240.1 16.5843C238.946 15.3639 238.368 13.8548 238.368 12.0571C238.368 10.2594 238.946 8.75031 240.1 7.52989C241.255 6.30948 242.72 5.69928 244.496 5.69928C246.279 5.69928 247.744 6.30948 248.892 7.52989C250.046 8.75031 250.624 10.2594 250.624 12.0571C250.624 13.8548 250.046 15.3639 248.892 16.5843ZM241.909 14.951C242.574 15.7257 243.436 16.113 244.496 16.113C245.563 16.113 246.429 15.7257 247.094 14.951C247.759 14.1691 248.091 13.2044 248.091 12.0571C248.091 10.8879 247.759 9.91591 247.094 9.14128C246.429 8.35934 245.563 7.96837 244.496 7.96837C243.436 7.96837 242.574 8.35934 241.909 9.14128C241.244 9.91591 240.911 10.8879 240.911 12.0571C240.911 13.2118 241.244 14.1764 241.909 14.951Z" fill="#427FB4"/>
<path d="M259.514 5.76505L259.492 8.01221C258.081 7.95375 256.974 8.24972 256.17 8.90012C255.374 9.55052 254.975 10.5882 254.975 12.0133V18.2505H252.399V5.90755H254.756L254.975 7.96837C255.246 7.32527 255.743 6.7918 256.466 6.36795C257.197 5.93678 258.213 5.73582 259.514 5.76505Z" fill="#427FB4"/>
<path d="M50.6045 30.5083C50.1032 31.0487 49.4619 31.3188 48.6807 31.3188C47.8994 31.3188 47.2565 31.0487 46.752 30.5083C46.2507 29.9647 46 29.2925 46 28.4917C46 27.6909 46.249 27.0187 46.7471 26.4751C47.2484 25.9315 47.8929 25.6597 48.6807 25.6597C49.4684 25.6597 50.1113 25.9315 50.6094 26.4751C51.1107 27.0187 51.3613 27.6909 51.3613 28.4917C51.3613 29.2925 51.109 29.9647 50.6045 30.5083ZM47.4014 29.9175C47.7269 30.2983 48.1533 30.4888 48.6807 30.4888C49.208 30.4888 49.6328 30.2983 49.9551 29.9175C50.2773 29.5334 50.4385 29.0581 50.4385 28.4917C50.4385 27.9188 50.2773 27.4403 49.9551 27.0562C49.6328 26.672 49.208 26.48 48.6807 26.48C48.1533 26.48 47.7269 26.672 47.4014 27.0562C47.0791 27.4403 46.918 27.9188 46.918 28.4917C46.918 29.0581 47.0791 29.5334 47.4014 29.9175Z" fill="black"/>
<path d="M54.9209 25.689C55.5199 25.689 56 25.8713 56.3613 26.2358C56.7227 26.6004 56.9033 27.0887 56.9033 27.7007V31.2505H55.9805V27.7886C55.9805 27.4012 55.8617 27.092 55.624 26.8608C55.3896 26.6265 55.0755 26.5093 54.6816 26.5093C54.2552 26.5093 53.8841 26.6346 53.5684 26.8853C53.2559 27.1359 53.0996 27.4517 53.0996 27.8325V31.2505H52.1816V25.7524H52.9824L53.0703 26.5728C53.2624 26.3058 53.526 26.0926 53.8613 25.9331C54.1999 25.7703 54.5531 25.689 54.9209 25.689Z" fill="black"/>
<path d="M58.3389 31.2505V23.7505H59.208V31.2505H58.3389Z" fill="black"/>
<path d="M61.2344 24.8784C61.0814 24.8784 60.9495 24.8247 60.8389 24.7173C60.7314 24.6066 60.6777 24.4715 60.6777 24.312C60.6777 24.159 60.7314 24.0256 60.8389 23.9116C60.9495 23.7977 61.0814 23.7407 61.2344 23.7407C61.3939 23.7407 61.529 23.7977 61.6396 23.9116C61.7503 24.0256 61.8057 24.159 61.8057 24.312C61.8057 24.4715 61.7503 24.6066 61.6396 24.7173C61.529 24.8247 61.3939 24.8784 61.2344 24.8784ZM60.7852 25.7524H61.708V31.2505H60.7852V25.7524Z" fill="black"/>
<path d="M65.7217 25.689C66.3206 25.689 66.8008 25.8713 67.1621 26.2358C67.5234 26.6004 67.7041 27.0887 67.7041 27.7007V31.2505H66.7812V27.7886C66.7812 27.4012 66.6624 27.092 66.4248 26.8608C66.1904 26.6265 65.8763 26.5093 65.4824 26.5093C65.056 26.5093 64.6849 26.6346 64.3691 26.8853C64.0566 27.1359 63.9004 27.4517 63.9004 27.8325V31.2505H62.9824V25.7524H63.7832L63.8711 26.5728C64.0632 26.3058 64.3268 26.0926 64.6621 25.9331C65.0007 25.7703 65.3538 25.689 65.7217 25.689Z" fill="black"/>
<path d="M73.5684 28.4722C73.5684 28.5308 73.5618 28.6398 73.5488 28.7993H69.4326C69.4521 29.3462 69.6247 29.7759 69.9502 30.0884C70.2757 30.3976 70.6484 30.5555 71.0684 30.562C71.4688 30.5685 71.8008 30.4855 72.0645 30.313C72.3281 30.1372 72.5072 29.9028 72.6016 29.6099H73.3926C73.3665 29.7954 73.3047 29.981 73.207 30.1665C73.1094 30.3488 72.9743 30.5311 72.8018 30.7134C72.6292 30.8924 72.3949 31.0356 72.0986 31.1431C71.8057 31.2472 71.4769 31.2993 71.1123 31.2993C70.3441 31.2928 69.724 31.0259 69.252 30.4985C68.7832 29.9679 68.5488 29.3055 68.5488 28.5112C68.5488 27.6974 68.7767 27.0269 69.2324 26.4995C69.6914 25.9722 70.3148 25.7085 71.1025 25.7085C71.8545 25.7085 72.4535 25.9624 72.8994 26.4702C73.3454 26.978 73.5684 27.6453 73.5684 28.4722ZM71.1025 26.4702C70.6305 26.4702 70.2513 26.6183 69.9648 26.9146C69.6816 27.2108 69.5107 27.6095 69.4521 28.1108H72.709C72.6569 27.6095 72.4925 27.2108 72.2158 26.9146C71.9391 26.6183 71.568 26.4702 71.1025 26.4702Z" fill="black"/>
<path d="M81.9766 23.7505V31.2505H81.1855L81.0928 30.3813C80.6533 30.9933 80.0267 31.2993 79.2129 31.2993C78.4674 31.2993 77.8604 31.0389 77.3916 30.5181C76.9261 29.994 76.6934 29.3315 76.6934 28.5308C76.6934 27.73 76.9277 27.0578 77.3965 26.5142C77.8685 25.9705 78.4772 25.6987 79.2227 25.6987C79.9909 25.6987 80.6045 26.0096 81.0635 26.6313V23.7505H81.9766ZM79.3643 30.5327C79.7842 30.5327 80.1471 30.396 80.4531 30.1226C80.7624 29.8491 80.9658 29.4943 81.0635 29.0581V27.9985C80.9626 27.5656 80.7591 27.2124 80.4531 26.939C80.1471 26.6655 79.7842 26.5288 79.3643 26.5288C78.8434 26.5288 78.4202 26.7192 78.0947 27.1001C77.7692 27.481 77.6064 27.9578 77.6064 28.5308C77.6064 29.0972 77.7692 29.5724 78.0947 29.9565C78.4202 30.3407 78.8434 30.5327 79.3643 30.5327Z" fill="black"/>
<path d="M87.3428 30.5083C86.8415 31.0487 86.2002 31.3188 85.4189 31.3188C84.6377 31.3188 83.9948 31.0487 83.4902 30.5083C82.9889 29.9647 82.7383 29.2925 82.7383 28.4917C82.7383 27.6909 82.9873 27.0187 83.4854 26.4751C83.9867 25.9315 84.6312 25.6597 85.4189 25.6597C86.2067 25.6597 86.8496 25.9315 87.3477 26.4751C87.849 27.0187 88.0996 27.6909 88.0996 28.4917C88.0996 29.2925 87.8473 29.9647 87.3428 30.5083ZM84.1396 29.9175C84.4652 30.2983 84.8916 30.4888 85.4189 30.4888C85.9463 30.4888 86.3711 30.2983 86.6934 29.9175C87.0156 29.5334 87.1768 29.0581 87.1768 28.4917C87.1768 27.9188 87.0156 27.4403 86.6934 27.0562C86.3711 26.672 85.9463 26.48 85.4189 26.48C84.8916 26.48 84.4652 26.672 84.1396 27.0562C83.8174 27.4403 83.6562 27.9188 83.6562 28.4917C83.6562 29.0581 83.8174 29.5334 84.1396 29.9175Z" fill="black"/>
<path d="M91.1611 31.3091C90.4027 31.3091 89.7842 31.0422 89.3057 30.5083C88.8271 29.9712 88.5879 29.2957 88.5879 28.4819C88.5879 27.6681 88.8239 27.0008 89.2959 26.48C89.7712 25.9591 90.3929 25.6987 91.1611 25.6987C91.861 25.6987 92.4274 25.8826 92.8604 26.2505C93.2933 26.6183 93.5423 27.0643 93.6074 27.5884H92.7676C92.7155 27.2694 92.5446 27.0041 92.2549 26.7925C91.9652 26.5776 91.6234 26.4702 91.2295 26.4702C90.6956 26.4702 90.2725 26.6525 89.96 27.0171C89.6475 27.3784 89.4912 27.8667 89.4912 28.4819C89.4912 29.1004 89.6491 29.5952 89.9648 29.9663C90.2806 30.3341 90.7054 30.5181 91.2393 30.5181C91.6201 30.5181 91.9473 30.4106 92.2207 30.1958C92.4941 29.9777 92.6764 29.7026 92.7676 29.3706H93.5879C93.4805 29.911 93.2201 30.37 92.8066 30.7476C92.3965 31.1219 91.848 31.3091 91.1611 31.3091Z" fill="black"/>
<path d="M96.5762 31.2603C96.0488 31.2603 95.6419 31.1545 95.3555 30.9429C95.069 30.728 94.9258 30.3341 94.9258 29.7612V26.4604H94.0664V25.7329H94.9258V23.7505H95.8145V25.7329H97.1182V26.4702L95.7949 26.4604V29.6587C95.7949 29.9321 95.847 30.1356 95.9512 30.269C96.0553 30.4025 96.2637 30.4692 96.5762 30.4692H97.1768V31.2603H96.5762Z" fill="black"/>
<path d="M102.362 30.5083C101.861 31.0487 101.22 31.3188 100.438 31.3188C99.6572 31.3188 99.0143 31.0487 98.5098 30.5083C98.0085 29.9647 97.7578 29.2925 97.7578 28.4917C97.7578 27.6909 98.0068 27.0187 98.5049 26.4751C99.0062 25.9315 99.6507 25.6597 100.438 25.6597C101.226 25.6597 101.869 25.9315 102.367 26.4751C102.868 27.0187 103.119 27.6909 103.119 28.4917C103.119 29.2925 102.867 29.9647 102.362 30.5083ZM99.1592 29.9175C99.4847 30.2983 99.9111 30.4888 100.438 30.4888C100.966 30.4888 101.391 30.2983 101.713 29.9175C102.035 29.5334 102.196 29.0581 102.196 28.4917C102.196 27.9188 102.035 27.4403 101.713 27.0562C101.391 26.672 100.966 26.48 100.438 26.48C99.9111 26.48 99.4847 26.672 99.1592 27.0562C98.8369 27.4403 98.6758 27.9188 98.6758 28.4917C98.6758 29.0581 98.8369 29.5334 99.1592 29.9175Z" fill="black"/>
<path d="M106.889 25.6987L106.879 26.4897C106.286 26.4572 105.806 26.5923 105.438 26.895C105.071 27.1978 104.887 27.6567 104.887 28.272V31.2505H103.949V25.7524H104.789L104.887 26.7485C105.215 26.0031 105.883 25.6532 106.889 25.6987Z" fill="black"/>
<path d="M111.786 31.2993C111.252 31.2993 110.814 31.1512 110.473 30.855C110.134 30.5588 109.965 30.1746 109.965 29.7026C109.965 29.2013 110.152 28.7944 110.526 28.4819C110.901 28.1662 111.467 27.9823 112.226 27.9302L113.568 27.8423V27.6616C113.568 27.2547 113.451 26.9487 113.217 26.7437C112.982 26.5353 112.659 26.4312 112.245 26.4312C111.877 26.4312 111.573 26.5337 111.332 26.7388C111.094 26.9406 110.956 27.2075 110.917 27.5396H110.087C110.139 27.0187 110.351 26.5793 110.722 26.2212C111.093 25.8599 111.615 25.6792 112.289 25.6792C112.95 25.6792 113.469 25.855 113.847 26.2065C114.228 26.5549 114.418 27.0464 114.418 27.6812C114.418 27.9481 114.42 28.2443 114.423 28.5698C114.426 28.8953 114.428 29.172 114.428 29.3999C114.428 29.6278 114.428 29.7547 114.428 29.7808C114.428 30.0607 114.459 30.2576 114.521 30.3716C114.586 30.4855 114.691 30.5392 114.838 30.5327V31.2505C114.763 31.2505 114.659 31.244 114.525 31.231C114.031 31.1496 113.734 30.8957 113.637 30.4692C113.49 30.7036 113.244 30.9006 112.899 31.0601C112.558 31.2196 112.187 31.2993 111.786 31.2993ZM111.918 30.562C112.325 30.562 112.693 30.4416 113.021 30.2007C113.35 29.9598 113.533 29.6831 113.568 29.3706V28.5308L112.309 28.6284C111.322 28.7098 110.829 29.0597 110.829 29.6782C110.829 29.9451 110.938 30.16 111.156 30.3228C111.378 30.4823 111.632 30.562 111.918 30.562Z" fill="black"/>
<path d="M118.446 25.689C119.045 25.689 119.525 25.8713 119.887 26.2358C120.248 26.6004 120.429 27.0887 120.429 27.7007V31.2505H119.506V27.7886C119.506 27.4012 119.387 27.092 119.149 26.8608C118.915 26.6265 118.601 26.5093 118.207 26.5093C117.781 26.5093 117.41 26.6346 117.094 26.8853C116.781 27.1359 116.625 27.4517 116.625 27.8325V31.2505H115.707V25.7524H116.508L116.596 26.5728C116.788 26.3058 117.051 26.0926 117.387 25.9331C117.725 25.7703 118.078 25.689 118.446 25.689Z" fill="black"/>
<path d="M126.537 23.7505V31.2505H125.746L125.653 30.3813C125.214 30.9933 124.587 31.2993 123.773 31.2993C123.028 31.2993 122.421 31.0389 121.952 30.5181C121.487 29.994 121.254 29.3315 121.254 28.5308C121.254 27.73 121.488 27.0578 121.957 26.5142C122.429 25.9705 123.038 25.6987 123.783 25.6987C124.551 25.6987 125.165 26.0096 125.624 26.6313V23.7505H126.537ZM123.925 30.5327C124.345 30.5327 124.708 30.396 125.014 30.1226C125.323 29.8491 125.526 29.4943 125.624 29.0581V27.9985C125.523 27.5656 125.32 27.2124 125.014 26.939C124.708 26.6655 124.345 26.5288 123.925 26.5288C123.404 26.5288 122.981 26.7192 122.655 27.1001C122.33 27.481 122.167 27.9578 122.167 28.5308C122.167 29.0972 122.33 29.5724 122.655 29.9565C122.981 30.3407 123.404 30.5327 123.925 30.5327Z" fill="black"/>
<path d="M132.929 25.6987C133.674 25.6987 134.278 25.9608 134.74 26.4849C135.206 27.009 135.438 27.6714 135.438 28.4722C135.438 29.2697 135.201 29.9386 134.726 30.479C134.254 31.0194 133.645 31.2896 132.899 31.2896C132.125 31.2896 131.518 30.9836 131.078 30.3716V33.7993H130.155V25.7524H130.985L131.078 26.5825C131.492 25.9933 132.108 25.6987 132.929 25.6987ZM132.768 30.4692C133.295 30.4692 133.72 30.2788 134.042 29.8979C134.364 29.5138 134.525 29.0386 134.525 28.4722C134.525 27.8993 134.364 27.4224 134.042 27.0415C133.72 26.6606 133.295 26.4702 132.768 26.4702C132.348 26.4702 131.985 26.6086 131.679 26.8853C131.373 27.1619 131.173 27.5168 131.078 27.9497V28.9995C131.173 29.4325 131.373 29.7856 131.679 30.0591C131.985 30.3325 132.348 30.4692 132.768 30.4692Z" fill="black"/>
<path d="M139.154 25.6987L139.145 26.4897C138.552 26.4572 138.072 26.5923 137.704 26.895C137.336 27.1978 137.152 27.6567 137.152 28.272V31.2505H136.215V25.7524H137.055L137.152 26.7485C137.481 26.0031 138.148 25.6532 139.154 25.6987Z" fill="black"/>
<path d="M144.633 28.4722C144.633 28.5308 144.626 28.6398 144.613 28.7993H140.497C140.517 29.3462 140.689 29.7759 141.015 30.0884C141.34 30.3976 141.713 30.5555 142.133 30.562C142.533 30.5685 142.865 30.4855 143.129 30.313C143.393 30.1372 143.572 29.9028 143.666 29.6099H144.457C144.431 29.7954 144.369 29.981 144.271 30.1665C144.174 30.3488 144.039 30.5311 143.866 30.7134C143.694 30.8924 143.459 31.0356 143.163 31.1431C142.87 31.2472 142.541 31.2993 142.177 31.2993C141.409 31.2928 140.788 31.0259 140.316 30.4985C139.848 29.9679 139.613 29.3055 139.613 28.5112C139.613 27.6974 139.841 27.0269 140.297 26.4995C140.756 25.9722 141.379 25.7085 142.167 25.7085C142.919 25.7085 143.518 25.9624 143.964 26.4702C144.41 26.978 144.633 27.6453 144.633 28.4722ZM142.167 26.4702C141.695 26.4702 141.316 26.6183 141.029 26.9146C140.746 27.2108 140.575 27.6095 140.517 28.1108H143.773C143.721 27.6095 143.557 27.2108 143.28 26.9146C143.004 26.6183 142.632 26.4702 142.167 26.4702Z" fill="black"/>
<path d="M147.343 31.3384C146.662 31.3384 146.135 31.1626 145.761 30.811C145.39 30.4562 145.186 30.0623 145.15 29.6294H145.961C146 29.8898 146.153 30.1242 146.42 30.3325C146.687 30.5376 146.99 30.6369 147.328 30.6304C147.67 30.6239 147.947 30.5343 148.158 30.3618C148.373 30.186 148.48 29.9631 148.48 29.6929C148.48 29.4129 148.36 29.2013 148.119 29.0581C147.882 28.9116 147.54 28.7993 147.094 28.7212C146.56 28.6138 146.132 28.4543 145.81 28.2427C145.491 28.0278 145.331 27.6974 145.331 27.2515C145.331 26.7729 145.523 26.3905 145.907 26.104C146.291 25.8143 146.757 25.6694 147.304 25.6694C147.877 25.6694 148.34 25.8029 148.695 26.0698C149.053 26.3368 149.258 26.7241 149.311 27.2319H148.524C148.472 26.952 148.332 26.7469 148.104 26.6167C147.877 26.4865 147.642 26.4149 147.401 26.4019C147.095 26.3888 146.832 26.4458 146.61 26.5728C146.392 26.6965 146.283 26.8853 146.283 27.1392C146.283 27.4061 146.394 27.5998 146.615 27.7202C146.84 27.8407 147.169 27.9399 147.602 28.0181C148.816 28.2524 149.423 28.7896 149.423 29.6294C149.423 30.1242 149.226 30.5327 148.832 30.855C148.438 31.1772 147.942 31.3384 147.343 31.3384Z" fill="black"/>
<path d="M152.597 31.3091C151.838 31.3091 151.22 31.0422 150.741 30.5083C150.263 29.9712 150.023 29.2957 150.023 28.4819C150.023 27.6681 150.259 27.0008 150.731 26.48C151.207 25.9591 151.828 25.6987 152.597 25.6987C153.297 25.6987 153.863 25.8826 154.296 26.2505C154.729 26.6183 154.978 27.0643 155.043 27.5884H154.203C154.151 27.2694 153.98 27.0041 153.69 26.7925C153.401 26.5776 153.059 26.4702 152.665 26.4702C152.131 26.4702 151.708 26.6525 151.396 27.0171C151.083 27.3784 150.927 27.8667 150.927 28.4819C150.927 29.1004 151.085 29.5952 151.4 29.9663C151.716 30.3341 152.141 30.5181 152.675 30.5181C153.056 30.5181 153.383 30.4106 153.656 30.1958C153.93 29.9777 154.112 29.7026 154.203 29.3706H155.023C154.916 29.911 154.656 30.37 154.242 30.7476C153.832 31.1219 153.284 31.3091 152.597 31.3091Z" fill="black"/>
<path d="M158.969 25.6987L158.959 26.4897C158.367 26.4572 157.886 26.5923 157.519 26.895C157.151 27.1978 156.967 27.6567 156.967 28.272V31.2505H156.029V25.7524H156.869L156.967 26.7485C157.296 26.0031 157.963 25.6532 158.969 25.6987Z" fill="black"/>
<path d="M160.297 24.8784C160.144 24.8784 160.012 24.8247 159.901 24.7173C159.794 24.6066 159.74 24.4715 159.74 24.312C159.74 24.159 159.794 24.0256 159.901 23.9116C160.012 23.7977 160.144 23.7407 160.297 23.7407C160.456 23.7407 160.591 23.7977 160.702 23.9116C160.813 24.0256 160.868 24.159 160.868 24.312C160.868 24.4715 160.813 24.6066 160.702 24.7173C160.591 24.8247 160.456 24.8784 160.297 24.8784ZM159.848 25.7524H160.771V31.2505H159.848V25.7524Z" fill="black"/>
<path d="M164.735 25.6987C165.481 25.6987 166.085 25.9608 166.547 26.4849C167.012 27.009 167.245 27.6714 167.245 28.4722C167.245 29.2697 167.007 29.9386 166.532 30.479C166.06 31.0194 165.451 31.2896 164.706 31.2896C163.931 31.2896 163.324 30.9836 162.885 30.3716V33.7993H161.962V25.7524H162.792L162.885 26.5825C163.298 25.9933 163.915 25.6987 164.735 25.6987ZM164.574 30.4692C165.102 30.4692 165.526 30.2788 165.849 29.8979C166.171 29.5138 166.332 29.0386 166.332 28.4722C166.332 27.8993 166.171 27.4224 165.849 27.0415C165.526 26.6606 165.102 26.4702 164.574 26.4702C164.154 26.4702 163.791 26.6086 163.485 26.8853C163.179 27.1619 162.979 27.5168 162.885 27.9497V28.9995C162.979 29.4325 163.179 29.7856 163.485 30.0591C163.791 30.3325 164.154 30.4692 164.574 30.4692Z" fill="black"/>
<path d="M170.102 31.2603C169.574 31.2603 169.167 31.1545 168.881 30.9429C168.594 30.728 168.451 30.3341 168.451 29.7612V26.4604H167.592V25.7329H168.451V23.7505H169.34V25.7329H170.644V26.4702L169.32 26.4604V29.6587C169.32 29.9321 169.372 30.1356 169.477 30.269C169.581 30.4025 169.789 30.4692 170.102 30.4692H170.702V31.2603H170.102Z" fill="black"/>
<path d="M172.172 24.8784C172.019 24.8784 171.887 24.8247 171.776 24.7173C171.669 24.6066 171.615 24.4715 171.615 24.312C171.615 24.159 171.669 24.0256 171.776 23.9116C171.887 23.7977 172.019 23.7407 172.172 23.7407C172.331 23.7407 172.466 23.7977 172.577 23.9116C172.688 24.0256 172.743 24.159 172.743 24.312C172.743 24.4715 172.688 24.6066 172.577 24.7173C172.466 24.8247 172.331 24.8784 172.172 24.8784ZM171.723 25.7524H172.646V31.2505H171.723V25.7524Z" fill="black"/>
<path d="M178.144 30.5083C177.642 31.0487 177.001 31.3188 176.22 31.3188C175.438 31.3188 174.796 31.0487 174.291 30.5083C173.79 29.9647 173.539 29.2925 173.539 28.4917C173.539 27.6909 173.788 27.0187 174.286 26.4751C174.787 25.9315 175.432 25.6597 176.22 25.6597C177.007 25.6597 177.65 25.9315 178.148 26.4751C178.65 27.0187 178.9 27.6909 178.9 28.4917C178.9 29.2925 178.648 29.9647 178.144 30.5083ZM174.94 29.9175C175.266 30.2983 175.692 30.4888 176.22 30.4888C176.747 30.4888 177.172 30.2983 177.494 29.9175C177.816 29.5334 177.978 29.0581 177.978 28.4917C177.978 27.9188 177.816 27.4403 177.494 27.0562C177.172 26.672 176.747 26.48 176.22 26.48C175.692 26.48 175.266 26.672 174.94 27.0562C174.618 27.4403 174.457 27.9188 174.457 28.4917C174.457 29.0581 174.618 29.5334 174.94 29.9175Z" fill="black"/>
<path d="M182.46 25.689C183.059 25.689 183.539 25.8713 183.9 26.2358C184.262 26.6004 184.442 27.0887 184.442 27.7007V31.2505H183.52V27.7886C183.52 27.4012 183.401 27.092 183.163 26.8608C182.929 26.6265 182.615 26.5093 182.221 26.5093C181.794 26.5093 181.423 26.6346 181.107 26.8853C180.795 27.1359 180.639 27.4517 180.639 27.8325V31.2505H179.721V25.7524H180.521L180.609 26.5728C180.801 26.3058 181.065 26.0926 181.4 25.9331C181.739 25.7703 182.092 25.689 182.46 25.689Z" fill="black"/>
<path d="M187.47 31.3384C186.789 31.3384 186.262 31.1626 185.888 30.811C185.517 30.4562 185.313 30.0623 185.277 29.6294H186.088C186.127 29.8898 186.28 30.1242 186.547 30.3325C186.814 30.5376 187.117 30.6369 187.455 30.6304C187.797 30.6239 188.074 30.5343 188.285 30.3618C188.5 30.186 188.607 29.9631 188.607 29.6929C188.607 29.4129 188.487 29.2013 188.246 29.0581C188.008 28.9116 187.667 28.7993 187.221 28.7212C186.687 28.6138 186.259 28.4543 185.937 28.2427C185.618 28.0278 185.458 27.6974 185.458 27.2515C185.458 26.7729 185.65 26.3905 186.034 26.104C186.418 25.8143 186.884 25.6694 187.431 25.6694C188.004 25.6694 188.467 25.8029 188.822 26.0698C189.18 26.3368 189.385 26.7241 189.438 27.2319H188.651C188.599 26.952 188.459 26.7469 188.231 26.6167C188.004 26.4865 187.769 26.4149 187.528 26.4019C187.222 26.3888 186.959 26.4458 186.737 26.5728C186.519 26.6965 186.41 26.8853 186.41 27.1392C186.41 27.4061 186.521 27.5998 186.742 27.7202C186.967 27.8407 187.296 27.9399 187.729 28.0181C188.943 28.2524 189.55 28.7896 189.55 29.6294C189.55 30.1242 189.353 30.5327 188.959 30.855C188.565 31.1772 188.069 31.3384 187.47 31.3384Z" fill="black"/>
</svg>
