<svg width="501" height="82" viewBox="0 0 501 82" fill="none" xmlns="http://www.w3.org/2000/svg">
<path d="M116.305 51.9144C111.299 51.9144 107.498 50.7993 104.904 48.569C102.309 46.2931 100.966 43.2207 100.875 39.3518H110.024C110.024 40.7628 110.57 41.9235 111.663 42.8338C112.755 43.7442 114.303 44.1993 116.305 44.1993C118.217 44.1993 119.674 43.9035 120.675 43.3118C121.676 42.6745 122.177 41.878 122.177 40.9221C122.177 39.1925 120.812 38.0546 118.081 37.5084L112.346 36.416C105.427 35.096 101.968 31.5002 101.968 25.6285C101.968 22.6244 103.219 20.1438 105.723 18.1866C108.272 16.1838 111.731 15.1825 116.101 15.1825C120.47 15.1825 123.975 16.2976 126.615 18.5279C129.255 20.7127 130.575 23.5348 130.575 26.994H121.563C121.563 25.6741 121.062 24.6044 120.061 23.7851C119.105 22.9203 117.739 22.4879 115.964 22.4879C114.417 22.4879 113.188 22.7837 112.277 23.3755C111.367 23.9672 110.912 24.741 110.912 25.6968C110.912 27.3354 112.118 28.4051 114.53 28.9057L121.016 30.0664C124.248 30.7036 126.774 31.8416 128.595 33.4802C130.461 35.1188 131.394 37.5767 131.394 40.8539C131.394 44.3131 129.983 47.0214 127.161 48.9786C124.339 50.9358 120.721 51.9144 116.305 51.9144Z" fill="white"/>
<path d="M137.726 51.2999V15.7969H146.875V51.2999H137.726Z" fill="white"/>
<path d="M195.423 15.1825C199.338 15.1825 202.456 16.3431 204.777 18.6645C207.098 20.9858 208.259 24.1037 208.259 28.0182V51.2999H199.11V30.6126C199.11 25.8789 197.062 23.512 192.966 23.512C190.826 23.512 189.165 24.2403 187.981 25.6968C186.798 27.1533 186.206 29.1333 186.206 31.6367V51.2999H177.126V30.6126C177.126 25.8789 175.055 23.512 170.913 23.512C168.773 23.512 167.044 24.2403 165.724 25.6968C164.404 27.1533 163.744 29.1333 163.744 31.6367V51.2999H154.595V15.7969H162.788L163.471 19.8252H163.744C166.065 16.73 169.388 15.1825 173.712 15.1825C178.673 15.1825 182.224 16.9349 184.363 20.4396H184.568C186.935 16.9349 190.553 15.1825 195.423 15.1825Z" fill="white"/>
<path d="M216.002 66.9349V15.7969H224.195L225.151 19.6203H225.424C227.7 16.6617 230.977 15.1825 235.256 15.1825C239.671 15.1825 243.199 16.8893 245.839 20.3031C248.479 23.6713 249.799 28.1092 249.799 33.6167C249.799 38.9877 248.501 43.38 245.907 46.7938C243.312 50.2076 239.762 51.9144 235.256 51.9144C230.977 51.9144 227.7 50.4351 225.424 47.4766H225.151V66.9349H216.002ZM226.653 41.0587C227.928 42.9249 229.931 43.858 232.662 43.858C235.393 43.858 237.373 42.9249 238.602 41.0587C239.876 39.147 240.513 36.6663 240.513 33.6167C240.513 30.5216 239.876 28.0182 238.602 26.1065C237.373 24.1948 235.393 23.2389 232.662 23.2389C229.976 23.2389 227.996 24.2175 226.722 26.1747C225.447 28.0864 224.81 30.5671 224.81 33.6167C224.81 36.6663 225.424 39.147 226.653 41.0587Z" fill="white"/>
<path d="M256.141 51.2999V0.776428H265.29V51.2999H256.141Z" fill="white"/>
<path d="M288.167 51.9144C282.841 51.9144 278.654 50.2076 275.604 46.7938C272.554 43.3345 271.029 38.9422 271.029 33.6167C271.029 28.2913 272.486 23.8989 275.399 20.4396C278.358 16.9349 282.568 15.1825 288.03 15.1825C293.173 15.1825 297.202 16.8211 300.115 20.0983C303.073 23.3755 304.553 27.5175 304.553 32.5243V36.0746H280.383C280.429 38.6236 281.089 40.649 282.363 42.1511C283.683 43.6076 285.618 44.3359 288.167 44.3359C291.944 44.3359 294.266 42.9704 295.131 40.2394H304.075C303.574 43.6076 301.89 46.4069 299.022 48.6372C296.2 50.822 292.582 51.9144 288.167 51.9144ZM280.451 29.9981H295.199C295.108 27.8589 294.448 26.1292 293.219 24.8092C292.035 23.4893 290.306 22.8293 288.03 22.8293C285.572 22.8293 283.706 23.4893 282.431 24.8092C281.202 26.1292 280.542 27.8589 280.451 29.9981Z" fill="white"/>
<path d="M331.309 51.9144C325.756 51.9144 321.477 50.2303 318.473 46.8621C315.514 43.4938 314.035 39.0787 314.035 33.6167C314.035 28.1547 315.537 23.7168 318.541 20.3031C321.545 16.8893 325.801 15.1825 331.309 15.1825C336.771 15.1825 341.004 16.8893 344.008 20.3031C347.012 23.7168 348.514 28.1547 348.514 33.6167C348.514 39.0332 347.012 43.4483 344.008 46.8621C341.049 50.2303 336.816 51.9144 331.309 51.9144ZM323.389 33.6167C323.389 40.4442 326.029 43.858 331.309 43.858C336.589 43.858 339.229 40.4442 339.229 33.6167C339.229 26.6982 336.589 23.2389 331.309 23.2389C326.029 23.2389 323.389 26.6982 323.389 33.6167Z" fill="white"/>
<path d="M354.887 51.2999V15.7969H363.08L363.762 19.8252H364.035C366.357 16.73 369.725 15.1825 374.14 15.1825C378.055 15.1825 381.172 16.3431 383.494 18.6645C385.861 20.9858 387.044 24.1037 387.044 28.0182V51.2999H377.895V30.6126C377.895 25.8789 375.71 23.512 371.341 23.512C369.156 23.512 367.381 24.2403 366.015 25.6968C364.695 27.1533 364.035 29.1333 364.035 31.6367V51.2999H354.887Z" fill="white"/>
<path d="M394.758 51.2999V0.776428H403.907V51.2999H394.758Z" fill="white"/>
<path d="M411.627 51.2999V15.7969H420.776V51.2999H411.627Z" fill="white"/>
<path d="M428.496 51.2999V15.7969H436.689L437.371 19.8252H437.644C439.966 16.73 443.334 15.1825 447.749 15.1825C451.664 15.1825 454.781 16.3431 457.103 18.6645C459.47 20.9858 460.653 24.1037 460.653 28.0182V51.2999H451.504V30.6126C451.504 25.8789 449.319 23.512 444.95 23.512C442.765 23.512 440.99 24.2403 439.624 25.6968C438.304 27.1533 437.644 29.1333 437.644 31.6367V51.2999H428.496Z" fill="white"/>
<path d="M483.524 51.9144C478.199 51.9144 474.011 50.2075 470.962 46.7938C467.912 43.3345 466.387 38.9422 466.387 33.6167C466.387 28.2913 467.844 23.8989 470.757 20.4396C473.715 16.9349 477.926 15.1825 483.388 15.1825C488.531 15.1825 492.559 16.8211 495.472 20.0983C498.431 23.3755 499.91 27.5175 499.91 32.5243V36.0746H475.741C475.786 38.6236 476.446 40.649 477.721 42.1511C479.041 43.6076 480.975 44.3359 483.524 44.3359C487.302 44.3359 489.623 42.9704 490.488 40.2394H499.432C498.932 43.6076 497.247 46.4069 494.38 48.6372C491.558 50.822 487.939 51.9144 483.524 51.9144ZM475.809 29.9981H490.557C490.465 27.8589 489.805 26.1292 488.577 24.8092C487.393 23.4893 485.663 22.8293 483.388 22.8293C480.93 22.8293 479.064 23.4893 477.789 24.8092C476.56 26.1292 475.9 27.8589 475.809 29.9981Z" fill="white"/>
<path d="M332.787 60.65H336.105V80.5042H332.787V71.7684H323.512V80.5042H320.193V60.65H323.512V68.7335H332.787V60.65Z" fill="#39FFC4"/>
<path d="M341.05 80.5042V60.65H354.438V63.6565H344.369V68.7619H353.559V71.7684H344.369V77.5261H354.438V80.5042H341.05Z" fill="#39FFC4"/>
<path d="M367.75 60.65L374.869 80.2206V80.5042H371.239L369.679 75.9094H361.567L360.007 80.5042H356.49V80.2206L363.581 60.65H367.75ZM362.56 72.988H368.686L365.68 64.1386H365.566L362.56 72.988Z" fill="#39FFC4"/>
<path d="M377.972 80.5042V60.65H381.291V77.4977H390.651V80.5042H377.972Z" fill="#39FFC4"/>
<path d="M394.857 80.5042V63.6565H388.873V60.65H404.189V63.6565H398.204V80.5042H394.857Z" fill="#39FFC4"/>
<path d="M419.981 60.65H423.3V80.5042H419.981V71.7684H410.707V80.5042H407.388V60.65H410.707V68.7335H419.981V60.65Z" fill="#39FFC4"/>
<path d="M436.244 80.7595C433.332 80.7595 431.081 79.833 429.493 77.9799C427.905 76.1079 427.111 73.6498 427.111 70.6055C427.111 67.5422 427.905 65.0746 429.493 63.2027C431.081 61.3307 433.332 60.3947 436.244 60.3947C438.645 60.3947 440.583 61.066 442.058 62.4085C443.533 63.751 444.365 65.5001 444.554 67.6557H441.15C441.018 66.3888 440.536 65.3772 439.704 64.6208C438.872 63.8456 437.718 63.4579 436.244 63.4579C434.315 63.4579 432.878 64.1197 431.932 65.4434C430.987 66.7481 430.514 68.4688 430.514 70.6055C430.514 72.7422 430.987 74.4629 431.932 75.7676C432.878 77.0723 434.315 77.7246 436.244 77.7246C437.681 77.7246 438.806 77.3654 439.619 76.6468C440.432 75.9283 440.952 74.945 441.179 73.6971H444.554C444.308 75.7959 443.457 77.4977 442.001 78.8024C440.545 80.1071 438.626 80.7595 436.244 80.7595Z" fill="#39FFC4"/>
<path d="M457.299 60.65L464.418 80.2206V80.5042H460.788L459.228 75.9094H451.116L449.556 80.5042H446.039V80.2206L453.13 60.65H457.299ZM452.109 72.988H458.235L455.229 64.1386H455.115L452.109 72.988Z" fill="#39FFC4"/>
<path d="M478.3 72.6193L483.377 80.2206V80.5042H479.604L474.811 73.0163H470.84V80.5042H467.522V60.65H475.917C477.903 60.65 479.481 61.2361 480.654 62.4085C481.826 63.5808 482.412 65.0368 482.412 66.7764C482.412 68.1946 482.044 69.4237 481.306 70.4636C480.569 71.4847 479.566 72.2033 478.3 72.6193ZM470.84 63.6565V70.0098H475.719C476.796 70.0098 477.609 69.7262 478.158 69.1589C478.706 68.5728 478.98 67.788 478.98 66.8048C478.98 65.8404 478.697 65.0746 478.129 64.5074C477.581 63.9401 476.777 63.6565 475.719 63.6565H470.84Z" fill="#39FFC4"/>
<path d="M486.523 80.5042V60.65H499.91V63.6565H489.841V68.7619H499.031V71.7684H489.841V77.5261H499.91V80.5042H486.523Z" fill="#39FFC4"/>
<path d="M59.1846 1.08051H33.7495L28.8171 24.7197L0.104584 18.721V44.1726L23.7284 49.1082L48.1011 54.2001L53.1898 29.8117L59.1846 1.08051Z" fill="white"/>
<path d="M32.1081 27.9608L27.0194 52.3493L21.0246 81.0804H46.4597L51.3921 57.4413L80.1046 63.4399V37.9883L56.4808 33.0528L32.1081 27.9608Z" fill="#39FFC4"/>
</svg>
